<?xml version="1.0" encoding="UTF-8"?>
<svg width="36px" height="36px" viewBox="0 0 36 36" version="1.1" xmlns="http://www.w3.org/2000/svg" xmlns:xlink="http://www.w3.org/1999/xlink">
    <!-- Generator: Sketch 48.2 (47327) - http://www.bohemiancoding.com/sketch -->
    <title>white/country-MX</title>
    <desc>Created with Sketch.</desc>
    <defs></defs>
    <g id="countries" stroke="none" stroke-width="1" fill="none" fill-rule="evenodd">
        <g id="white/country-MX" fill="#FAFAFC" fill-rule="nonzero">
            <polygon id="MX" points="21.7152014 15.9945987 21.3761188 16.8376389 21.2236871 17.5251367 21.1583593 18.7943634 21.0743664 19.2516583 21.226798 19.7618377 21.4974419 20.2191326 21.6716495 20.9377389 22.2502676 21.6252367 22.4524728 22.1509703 22.7946663 22.6020435 23.7216995 22.8478006 24.0825581 23.2273243 24.8478271 22.9722346 25.5104381 22.88202 26.1637165 22.7171449 26.7143369 22.5584916 27.2680682 22.1851896 27.4764951 21.6470126 27.5480447 20.872411 27.7004763 20.6017671 28.2884269 20.35601 29.2123493 20.1413614 29.98384 20.1724699 30.5126845 20.0946986 30.7211114 20.2906821 30.6931138 20.7386445 30.2233754 21.2892649 30.0180594 21.8523287 30.1767127 22.0109821 30.046057 22.4091708 29.8282975 23.1215554 29.6074272 22.8882417 29.4238871 22.9037959 29.259012 22.9162393 28.9479271 23.4668597 28.7892737 23.35798 28.6835048 23.4015319 28.6897265 23.5352984 27.8840164 23.5259659 27.0689738 23.5259659 27.0689738 24.0392561 26.6738959 24.0392561 26.9974243 24.3441194 27.3209526 24.5525463 27.417389 24.7485298 27.5604881 24.8045251 27.5356013 25.1093884 26.4188062 25.1124992 25.9988415 25.8466598 26.1201646 26.0146457 26.0206174 26.2261835 25.9988415 26.4874948 25.0127021 25.5200206 24.5616289 25.2276007 23.8492443 24.9911761 23.3639518 25.056504 22.6608997 25.3955866 22.2222699 25.4858012 21.6063217 25.2493766 20.9530432 25.0751691 20.1380006 24.661426 19.4847221 24.5338812 18.4954719 24.1139165 17.7675331 23.6783975 17.5466627 23.4357512 17.0582593 23.3828668 16.1654455 23.0935578 15.801476 22.6767039 14.8651103 22.157192 14.4295913 21.5754631 14.2211644 21.1243899 14.5104734 21.0341752 14.4202588 20.769753 14.622464 20.5302176 14.6255748 20.2066892 14.333155 19.7898353 14.2522729 19.4165334 13.959853 18.9436842 13.1914731 18.0042076 12.3142135 17.2607145 11.8911379 16.6665422 11.1414231 16.2745751 10.9827698 16.0381505 11.1165363 15.4408674 10.6716848 15.2137754 10.1552838 14.7409262 9.93752428 14.0596501 9.46778596 13.978768 8.96382831 13.462367 8.55319614 12.9801853 8.51586594 12.6691003 8.04612763 11.9162746 7.73815351 11.1447839 7.75059691 10.7559277 7.11909441 10.3546281 6.82978538 10.39818 6.33204942 10.1182035 6.19206119 10.5319465 6.33516027 11.0172391 6.41915322 11.7731756 6.72090564 12.1869186 7.36796239 12.8744164 7.51106148 13.1077301 7.64482802 13.1761688 7.75681861 13.5183623 7.91236109 13.502808 8.08967953 14.1374214 8.35410176 14.3862893 8.53764189 14.7315937 9.0882623 15.2293296 9.37757132 16.1283652 9.63577185 16.5483299 9.87841813 16.9962923 9.92508088 17.5002499 10.3450456 17.5313584 10.6965716 17.9637665 11.0138783 18.3868421 10.9921023 18.554828 10.6250221 18.9001323 10.4694796 18.8970215 10.2392767 18.3215143 9.6699912 17.7833373 9.04159955 17.3229315 8.59363719 17.0802852 8.62163483 16.380344 8.49097915 15.8577213 8.07412528 15.5590797 7.47373128 15.1266716 7.35862984 15.2511056 7.14087036 14.9960159 6.60269335 14.7627022 6.08940314 14.1934167 6.15162014 14.1187563 6.50936786 14.1747516 6.83289623 13.8076713 6.86711558 13.3628198 6.19517204 12.6566569 5.68499268 12.3797913 5.3614643 11.7545105 5.03793593 11.0950103 4.63352546 10.2830785 4.27888859 9.362267 5.27124966 9.28449576 6.37871217 9.17250517 6.29783008 9.37159955 7.61371952 9.87244636 9.60466335 10.5910526 11.3405175 10.5817201 12.0311262 10.5817201 12.0311262 10.1617554 13.5429991 10.1617554 13.8603058 10.5257248 14.3082682 10.8461423 14.8246692 11.2909938 15.1139782 11.8167274 15.3317377 12.364237 15.7828109 12.6659894 16.5076389 12.964631 17.0551485 12.177586 17.7706439 12.1589209 18.3834813 12.5571097 18.8221111 13.2352749 19.1238636 13.813893 19.6371538 14.3738459 19.8300265 15.055122 20.0757836 15.5124169 20.7539488 15.8110585 21.3730079 16.0225963"></polygon>
        </g>
    </g>
</svg>