<?xml version="1.0" encoding="UTF-8"?>
<svg width="36px" height="36px" viewBox="0 0 36 36" version="1.1" xmlns="http://www.w3.org/2000/svg" xmlns:xlink="http://www.w3.org/1999/xlink">
    <!-- Generator: Sketch 48.2 (47327) - http://www.bohemiancoding.com/sketch -->
    <title>white/country-AU</title>
    <desc>Created with Sketch.</desc>
    <defs></defs>
    <g id="countries" stroke="none" stroke-width="1" fill="none" fill-rule="evenodd">
        <g id="white/country-AU" fill="#FAFAFC" fill-rule="nonzero">
            <path d="M25.5745711,28.9867812 L26.2359464,29.2991651 L26.6093427,29.1746996 L27.1438121,29.0014242 L27.5538159,29.0624367 L27.6026259,30.1435778 L27.368338,30.4608427 L27.2975635,31.2076355 L27.0583946,30.951383 L26.5824973,31.6029963 L26.4409483,31.5517459 L26.0211824,31.5224599 L25.5989761,30.7219761 L25.5062371,30.1118513 L25.1108762,29.3186891 L25.1279597,28.9038042 L25.5745711,28.9867812 Z M24.317714,7.98384505 L24.5642044,8.53295737 L25.0034943,8.26938345 L25.2304607,8.56712436 L25.5599281,8.84290077 L25.4891536,9.15528467 L25.6355836,9.76052847 L25.740525,10.1144009 L25.9138005,10.1998183 L26.0992784,10.8099431 L26.0333849,11.180899 L26.2554704,11.6665583 L26.9973821,12.0423952 L27.480601,12.3865056 L27.9394148,12.70133 L27.8491163,12.877046 L28.2395962,13.3334193 L28.5056106,14.1265815 L28.7789465,13.9655086 L29.0571634,14.285214 L29.2255579,14.172951 L29.3427019,14.9563513 L29.8283612,15.4127246 L30.1456261,15.698263 L30.6800954,16.3059473 L30.8728949,16.9136316 L30.8899783,17.3456 L30.8436089,17.8190568 L31.1706358,18.4731106 L31.1315878,19.1588909 L31.0120033,19.5200848 L30.8265254,20.2205081 L30.8411684,20.6744409 L30.7069409,21.2455177 L30.404319,21.9776675 L29.8966952,22.3754688 L29.6477643,23.0075581 L29.4183573,23.4151215 L29.2157959,24.1301878 L28.952222,24.5475131 L28.7789465,25.1771619 L28.6910886,25.7628817 L28.7252556,26.0337772 L28.3323352,26.3315181 L27.5660184,26.3632445 L26.9339291,26.7171169 L26.6191047,27.0539058 L26.2066604,27.4297427 L25.6404646,27.0441438 L25.2206987,26.8903924 L25.3280807,26.4389 L24.9546843,26.6024135 L24.3543215,27.2320623 L23.7637207,26.9953338 L23.3756813,26.8586659 L22.9852014,26.7976534 L22.3238261,26.546282 L21.8820958,26.0142532 L21.7551898,25.3650804 L21.5965574,24.937993 L21.2597685,24.5963231 L20.6008337,24.4962627 L20.8253596,24.0911398 L20.6594057,23.476134 L20.3250573,24.0496513 L19.7149325,24.2034028 L20.0736859,23.7445889 L20.1761868,23.2686916 L20.4397608,22.8660092 L20.3860698,22.2632059 L19.829636,22.9587482 L19.4025486,23.2394056 L19.1414152,23.8958999 L18.6069459,23.55423 L18.6289104,23.1173806 L18.201823,22.5243393 L17.8406291,22.2192769 L17.9699756,22.0313585 L17.0913959,21.5432586 L16.6106175,21.5212941 L15.9516827,21.1308143 L14.7265521,21.2064697 L13.8406509,21.4944486 L13.0621317,21.7629035 L12.4080779,21.7092126 L11.6832496,22.1240974 L11.0902083,22.3120159 L10.9584214,22.7391032 L10.7046094,23.0710111 L10.1237706,23.0905351 L9.69424277,23.1637501 L9.08899896,23.0148796 L8.59601813,23.1051781 L8.12744228,23.1417856 L7.71987891,23.5810755 L7.51975798,23.544468 L7.17564759,23.7787559 L6.8461802,24.0423298 L6.34587786,24.0106033 L5.88706401,24.0106033 L5.16223575,23.481015 L4.79372037,23.324823 L4.80836336,22.8538067 L5.14759275,22.7415437 L5.26473671,22.5560658 L5.24033172,22.2632059 L5.32330869,21.7018911 L5.24765322,21.2259937 L4.88645934,20.4230695 L4.77419637,19.9715771 L4.80348236,19.5249658 L4.53014645,19.0173419 L4.51306296,18.7903755 L4.21044106,18.4828726 L4.12502359,17.8800693 L3.73454371,17.2748255 L3.63936424,16.9502391 L3.93954565,17.2797065 L3.70769822,16.5768427 L4.04692761,16.7964877 L4.24948904,17.0893476 L4.23728655,16.7013082 L3.89805716,16.1082669 L3.83216368,15.8715385 L3.67353123,15.6470125 L3.74674621,15.2150442 L3.88585466,15.0320067 L3.97859363,14.6610509 L3.90537866,14.2290825 L4.18847656,13.6994942 L4.23972705,14.2583685 L4.52770595,13.7531852 L5.08413977,13.5091352 L5.41848816,13.1967513 L5.94075499,12.9282964 L6.25069839,12.872165 L6.43861683,12.9624634 L6.97796715,12.691568 L7.39285202,12.6110315 L7.49535299,12.4523991 L7.67594993,12.3865056 L8.0542273,12.4035891 L8.77417457,12.1912657 L9.14513045,11.8715603 L9.32084639,11.4859614 L9.72108826,11.122327 L9.75281475,10.8367886 L9.76989824,10.4487492 L10.2482361,9.84594594 L10.536215,10.4585112 L10.8266344,10.3169623 L10.5825845,9.9801734 L10.7973484,9.63606301 L11.0999703,9.78981446 L11.1829473,9.25046413 L11.5563437,8.90391325 L11.7222976,8.62569634 L12.066408,8.50611188 L12.07617,8.31087194 L12.3763514,8.39384891 L12.3885539,8.21813297 L12.6887353,8.1180725 L13.0206432,8.02289304 L13.5258265,8.34503893 L13.9065444,8.76236429 L14.3336318,8.76724529 L14.7680406,8.83313877 L14.6240512,8.4475399 L14.9510781,7.88622508 L15.258581,7.70318764 L15.151199,7.5299122 L15.4489399,7.13211083 L15.8638248,6.88562041 L16.2128161,6.96859738 L16.788774,6.83681042 L16.7765715,6.48293804 L16.2762691,6.25353111 L16.6399035,6.15347065 L17.0938364,6.32430559 L17.4574707,6.609844 L18.0334285,6.78800044 L18.2286685,6.71722596 L18.6533153,6.93198989 L19.0535572,6.73186896 L19.3098096,6.79288144 L19.4708826,6.65865398 L19.785707,7.00276437 L19.6026695,7.37616075 L19.3439766,7.65925865 L19.1096887,7.68366365 L19.1902252,7.96432105 L18.9901042,8.31331244 L18.7460543,8.65742283 L18.7948643,8.85510326 L19.3390956,9.24558314 L19.8662434,9.47254956 L20.2176753,9.71659948 L20.7130967,10.1363653 L20.9058961,10.1363653 L21.2646495,10.3194028 L21.369591,10.5390477 L22.0236447,10.7806571 L22.4751371,10.5366072 L22.6093646,10.1534488 L22.748473,9.83862444 L22.8338905,9.45058507 L23.0413329,8.88927025 L22.9461534,8.55004086 L22.9949634,8.34503893 L22.9168675,7.94479706 L23.0071659,7.41764923 L23.1389529,7.27610028 L23.0315709,7.04425285 L23.1975249,6.67573747 L23.3268713,6.2950196 L23.3439548,6.09733916 L23.5977667,5.83864625 L23.7905662,6.17787564 L23.8369357,6.6122845 L24.0077706,6.69526147 L24.0370566,6.98812137 L24.2859875,7.34199376 L24.337238,7.73735463 L24.317714,7.98384505 Z" id="AU"></path>
        </g>
    </g>
</svg>