<?xml version="1.0" encoding="UTF-8"?>
<svg width="438px" height="164px" viewBox="0 0 438 164" version="1.1" xmlns="http://www.w3.org/2000/svg" xmlns:xlink="http://www.w3.org/1999/xlink">
    <!-- Generator: Sketch 54.1 (76490) - https://sketchapp.com -->
    <title>logo/black</title>
    <desc>Created with Sketch.</desc>
    <g id="logo/black" stroke="none" stroke-width="1" fill="none" fill-rule="evenodd">
        <path d="M31,51.75 L61.9921,51.75 L61.9921,61 C67.4921,54 77.7421,49.25 90.2421,49.25 C103.4921,49.25 113.9921,55.25 120.2421,63.5 C127.4921,55.5 138.2421,49.25 153.9921,49.25 C176.9921,49.25 190.7421,65.25 190.7421,90.5 L190.7421,163.5 L159.7421,163.5 L159.7421,97 C159.7421,85 154.4921,77 143.7421,77 C135.7421,77 128.4921,82 126.4921,91.5 L126.4921,163.5 L95.2421,163.5 L95.2421,97 C95.2421,85 90.2421,77 79.4921,77 C71.4921,77 63.9921,82 61.9921,91.5 L61.9921,163.5 L30.9921,163.5 L30.9921,51.827 L0,51.827 L0,20.826 L31,20.826 L31,51.75 Z M210.2392,51.75 L241.2392,51.75 L241.2392,62 C247.2392,55 258.2392,49.25 271.2392,49.25 C296.4892,49.25 310.7392,65.75 310.7392,90.5 L310.7392,163.5 L279.7392,163.5 L279.7392,97 C279.7392,85.25 273.7392,77.25 261.4892,77.25 C251.9892,77.25 243.7392,83 241.2392,92.75 L241.2392,163.5 L210.2392,163.5 L210.2392,51.75 Z M437.7372,163.5 L401.4872,163.5 L361.2372,112 L361.2372,163.5 L330.2372,163.5 L330.2372,1 L361.2372,1 L361.2372,96 L399.4872,51.75 L436.7372,51.75 L390.2372,103 L437.7372,163.5 Z" id="Combined-Shape" fill="#000000"></path>
    </g>
</svg>