<svg xmlns="http://www.w3.org/2000/svg" viewBox="0 0 2600 200">
  <defs>
    <style>
      .cls-1 {
        fill: transparent;
      }
      path {
        fill: #e7e9f0;
      }
    </style>
  </defs>
  <title>explosion_sprite_EXPORT</title>
  <g id="bg">
    <rect class="cls-1" x="200" width="200" height="200"/>
    <rect class="cls-1" width="200" height="200"/>
    <rect class="cls-1" x="2400" width="200" height="200"/>
    <rect class="cls-1" x="2200" width="200" height="200"/>
    <rect class="cls-1" x="2000" width="200" height="200"/>
    <rect class="cls-1" x="1800" width="200" height="200"/>
    <rect class="cls-1" x="1600" width="200" height="200"/>
    <rect class="cls-1" x="1400" width="200" height="200"/>
    <rect class="cls-1" x="1200" width="200" height="200"/>
    <rect class="cls-1" x="1000" width="200" height="200"/>
    <rect class="cls-1" x="800" width="200" height="200"/>
    <rect class="cls-1" x="600" width="200" height="200"/>
    <rect class="cls-1" x="400" width="200" height="200"/>
  </g>
  <g id="Layer_2" data-name="Layer 2">
    <path d="M336.37,102.62c-6.95-4.7-15-7.38-23-10l7.88-2.75a9.54,9.54,0,0,1-5.1-1.35l3.75-2.94-5.44-.13A35.43,35.43,0,0,1,321.24,76l-14.65,6c.67-1.95,1.35-3.91,2-5.86a4.61,4.61,0,0,0-3,2.58,106.36,106.36,0,0,1,3.73-16.33c-2.7,6.38-4.14,13.49-7,19.7a7.77,7.77,0,0,1-1.22-2.58c.51,2.43-2.59,2.2-2.41,4.55a10.27,10.27,0,0,0-1.43-4.5l-1.25,3.86q-.19-9.78-.4-19.56a168.85,168.85,0,0,0-3.47,26.22,5,5,0,0,0-5.87,1.11l-4.27-1.86,1.23,4.91a32.5,32.5,0,0,1-12.76-11.5,263.79,263.79,0,0,0,11.52,23.75l-1.22.09-5,2c1.26.49,2.72,1.23,2.85,2.58.1,1.18-.89,2.13-1.79,2.89l-8.29,6.94a178.23,178.23,0,0,1,22.64-8q-1.2,2.36-2.42,4.69l2.43-1.72q-1.11,4.41-2.24,8.83a25,25,0,0,0,8.45-7.46,33.85,33.85,0,0,0,10.09,14.17l-4-16,7.92,8.57L307,112.39l7.47,2.72q-1.51-3.1-3-6.21l1.69-.06-.41-1.31,6.6-.39-2.91-3.85,7.21-1.73-4.48-2.92A31.31,31.31,0,0,0,336.37,102.62Zm-28.21-.71c-.35,1.07-1.72,2.11-2.82,1.24a2.87,2.87,0,0,1-.66,4.54,2.9,2.9,0,0,1-3.63-1.48,11.31,11.31,0,0,1,.33,3.22,4.7,4.7,0,0,1-1.91,3.65,2.9,2.9,0,0,1-3.83-.55c-1.33-1.94.76-4.68-.06-6.88a6.47,6.47,0,0,1-1.81,2.49,2.53,2.53,0,0,1-2.9.2,1.61,1.61,0,0,1,0-2.6c-1.66.56-3.45-1.18-3.38-2.93A4.65,4.65,0,0,1,290.65,99a13.56,13.56,0,0,1,5.2-.57c-2.58-.06-4.43-3.26-3.37-5.62A4.74,4.74,0,0,1,299.07,91a5,5,0,0,1,2.1,2.83c.12-1,.29-2.11.51-3.15a4.63,4.63,0,0,1,.78-2,1.76,1.76,0,0,1,1.91-.65c.85.34,1.1,1.41,1.17,2.32.25,3.29-.72,5.64.75,8.14C307,99.61,308.77,100,308.16,101.91Z"/>
  </g>
  <g id="Layer_3" data-name="Layer 3">
    <g>
      <path d="M533.54,75.93a2.77,2.77,0,0,0,1.62-3.79,3.56,3.56,0,0,0-4.39-1.26,4.37,4.37,0,0,0-1.23-5.37,6.08,6.08,0,0,0-6.21-.64c3.26-1.76,5.84-4.72,6.14-8.07a7.46,7.46,0,0,0-5.84-7.71A10.33,10.33,0,0,0,515,51.63a24.56,24.56,0,0,0-5.09,7,8.85,8.85,0,0,0-8.62-2A7.19,7.19,0,0,0,496.13,63a8.67,8.67,0,0,0-8.66.43c2.57-3.69,5.22-7.58,5.54-11.91s-2.54-9.15-7.4-9.94c-4.56-.74-8.86,2.21-11.48,5.56a22.54,22.54,0,0,0-1.58,25.65c-2.22-1.89-6.36-1.55-8.14.67a4.57,4.57,0,0,0,1.5,6.65c-2.49-1-5.83.59-7,2.91-1.2,2.5-.61,5.35,0,8,.57,2.49,1.34,5.21,3.47,6.84a9.14,9.14,0,0,0-2.58,4,9.52,9.52,0,0,0,3,10c-1.67-1.89-5.07-1.48-6.6.52a6.19,6.19,0,0,0,.13,7.07,10.07,10.07,0,0,0,6.31,3.83,29.71,29.71,0,0,0,7.54.32,3.71,3.71,0,0,0-1.07,5.92,4.24,4.24,0,0,0-2.76,7.24,2.29,2.29,0,0,0-3.28,1.26,3.56,3.56,0,0,0,1.21,3.65,8.38,8.38,0,0,0,3.71,1.61,27.17,27.17,0,0,0,17.76-2.13A23.73,23.73,0,0,0,500,146.79a13.43,13.43,0,0,0,6.95-1.23,7.38,7.38,0,0,0,4.09-5.51,5.33,5.33,0,0,0-2.67-5.15,3,3,0,0,0,3.38-2l4.72-.43c-.63,1.87,1.3,3.58,3.1,4.38a15,15,0,0,0,9.43,1.06,10.73,10.73,0,0,0,7.31-5.82,8.4,8.4,0,0,0-1.37-9,6.91,6.91,0,0,0-8.79-1,1,1,0,0,0-.89-1.43,2.54,2.54,0,0,0,0-3,2.4,2.4,0,0,0-.79-.63,9.86,9.86,0,0,0,5.76-2.09,7,7,0,0,0,2.31-7.55c-1.41-3.75-6.47-5-10.2-3.53s-6.35,4.83-8.55,8.18l-3.16-.18c-.05.6-.1,1.21-.16,1.81l-3.57-1.14a7.74,7.74,0,0,1,2.57,2.24,2.65,2.65,0,0,1-.14,3.19,2,2,0,0,1-3.09-.62l-2-.75a5.26,5.26,0,0,1,.74,1.17,5.19,5.19,0,0,1-8.19,6,4.13,4.13,0,0,1-5.35-1.11,4.33,4.33,0,0,1-2.72,5.94c-2.63.63-5.46-1.5-5.94-4.17a6.7,6.7,0,0,1,3.48-6.76l-1.75.36q2.32-4.77,4.64-9.56a19.27,19.27,0,0,1-12.63,10l6.62-10.13-3.62,2.18,2.57-2.77-1.86.62c1.84-1.1,3.76-2.12,5.51-3.33-2-.25-3.74,0-5.12-1.65-1.18-1.43-1.73-3.63-3.64-4.07a3,3,0,0,0-1.65-1.05,3.23,3.23,0,0,0,2-1.2,2.58,2.58,0,0,0-.2-3.26,3.48,3.48,0,0,0,4.36-2l6.93,10.49a29,29,0,0,0-7.89-15.08c1.66,1.18,4.6.25,5-1.58.35-1.53-1.18-3.06-2.89-3.24a4.09,4.09,0,0,0,2.82-2.21,3.27,3.27,0,0,0,3.33,1.72,2.85,2.85,0,0,0,2.25-2.12q2.78,7.8,5.54,15.61L495,77.31c1.74,1.19,4.79-.13,4.77-2.06a4,4,0,0,0,3.46,4.24,4.51,4.51,0,0,0,5-2.84,34.35,34.35,0,0,1-.49,5.81l.57-1.61c.88-2.52,2.47-5.53,5.47-5.59s4.89,3.46,3.85,6-3.81,4.17-6.45,5.55c-.25-.62-.51-1.24-.76-1.87a4.58,4.58,0,0,0-3.25,5,5.17,5.17,0,0,0,5.16,3.62,4.29,4.29,0,0,0-4.28,4.92c.53,2.32,3.1,4,5.78,4.32a13.32,13.32,0,0,0,7.69-1.76,18.52,18.52,0,0,0,7.73-7.68,7.27,7.27,0,0,0,.32-.69c4.92.85,10.36-2.14,11.5-6.44S538.63,76.86,533.54,75.93Z"/>
      <path d="M507.74,82.46l-4.11,11.72A36.36,36.36,0,0,0,507.74,82.46Z"/>
      <path d="M499.29,114.67l5,1.88A5.39,5.39,0,0,0,499.29,114.67Z"/>
      <path d="M491.47,122.56a3.11,3.11,0,0,0-.3-.44A2.63,2.63,0,0,0,491.47,122.56Z"/>
    </g>
  </g>
  <g id="Layer_4" data-name="Layer 4">
    <path d="M751.08,123.57c-4.28-2.18-9.34-2.29-14.09-1.55,4.61-1,9.66-3,11.29-7.44A7.91,7.91,0,0,0,736.83,105a6,6,0,0,0-2.47-9.56,24.93,24.93,0,0,0,22.93-18.31c.84-3.37.83-7.28-1.42-9.94s-7.27-2.84-8.79.29a4.59,4.59,0,0,0-7.38-3.81,5.8,5.8,0,0,0-5.59-9c6.07-1.31,9.79-8.9,7.59-14.8-2.29-6.11-9.62-9.49-16-8.17s-11.52,6.64-13.63,12.81a5.78,5.78,0,0,0-7.63,4.25,9,9,0,0,0-7.5,1.63,31.77,31.77,0,0,0,1.67-5.31c1-4.81.55-10.16-2.4-14.1-3.82-5.12-11.06-6.73-17.3-5.39A24.23,24.23,0,0,0,661,42.78a24.21,24.21,0,0,0,7.28,23.76,8.1,8.1,0,0,0-7.39,12.36,13.45,13.45,0,0,0-3.22.73c-3.17-2.53-8.6-1.12-10.56,2.51a9.21,9.21,0,0,0,.54,9,13.74,13.74,0,0,0-.13,5.57,14.1,14.1,0,0,0,3.3,6.6,13.88,13.88,0,0,0-7.08,4c-2.84,3.07-3.9,8.53-.64,11.16-4.88.36-7.61,6.78-5.5,11.19s7.42,6.55,12.31,6.35,9.48-2.27,13.93-4.31l.06,5.38,2,0a5.61,5.61,0,0,0-3.81,5.39c.1,3.06,2.38,5.67,5,7.27A17.26,17.26,0,0,0,688.73,146a18.8,18.8,0,0,0,32.92-2.63l-4.08-2.11,1.52-2a28.61,28.61,0,0,0,27.77,7c5.32-1.59,10.6-5.5,11.22-11C758.62,130.38,755.35,125.75,751.08,123.57Zm-17.71-18.83a9,9,0,0,0-5.49,14l-7.22-.39c-.25,3-.49,5.9-.74,8.84a8.66,8.66,0,0,0-5.76,10.2,8.07,8.07,0,0,0-8.69-2.26,12.8,12.8,0,0,0,0-11.26l-3.36,7.73c-.29-.8-.59-1.59-.89-2.39a26.48,26.48,0,0,1-22.14,4.14,18.05,18.05,0,0,0,8.56-14.8c-2.57,4.68-5.76,9.85-11,10.93-1.65.34-3.62.1-4.6-1.27s0-3.84,1.67-3.59l-8.36-4,1.51-.29-2.66-4.21a3.58,3.58,0,0,0,3.16-4.92,11.54,11.54,0,0,0-.08-14.85,2.72,2.72,0,0,0,4-3.75,52.56,52.56,0,0,1,6.16.08c1.43.15,1.62,2.06,3.17-.38A20.76,20.76,0,0,0,681.92,73l-3.7-10.56L693.3,65c-2.29.93-2.6,4.7-.49,6s5.33-.68,5.13-3.15l2.7,17.89a44.36,44.36,0,0,1,3.74-22.06c-.59,3.2,3.35,6.2,6.28,4.79a4.89,4.89,0,0,0,5.23-.62c-.2,2.23-.4,4.45-.59,6.68L718.8,71l.67,3.52c-.59-3.87,4.14-7.2,7.8-5.8s5.17,6.34,3.43,9.85-6,5.32-9.91,4.78l6,.73-6.37,6a4.23,4.23,0,0,1-1.13,5.4l2.35,1a2.3,2.3,0,0,1,.32.15l-.32-.15c-1.7-.56-3.59,1.79-2.82,3.54s3.33,2.44,5.25,1.77A12.25,12.25,0,0,0,728.79,98L734,97.9c-1,1.24-2,2.47-2.95,3.7Z"/>
  </g>
  <g id="Layer_5" data-name="Layer 5">
    <g>
      <path d="M956.86,122.34a9.72,9.72,0,0,0-6.71-17c6.92-1.55,10.73-10.81,6.92-16.78,7.27-1.94,11.93-10.59,9.55-17.72s-11.3-11.26-18.27-8.44L944.71,57c3.57-5.11,7.31-10.84,6.61-17-.68-6-5.72-10.95-11.52-12.67s-12.15-.62-17.69,1.81-10.42,6.12-15.24,9.76c1.73-6.9-2.18-14.46-8.27-18.16s-13.84-3.93-20.67-1.91a35.12,35.12,0,0,0-16.54,10.74c-4.34,5.05-6.55,10.86-8,17.28-.83,3.78-1.61,7-4.78,9.5C844.18,59.74,839,61,836.27,66.51c-2.28,4.56-2.47,10.52.9,14.62,1.74,2.11,4.23,3.59,5.64,5.93a8.37,8.37,0,0,1-2,10.6A12.86,12.86,0,0,0,843.66,120c-3,3.62-6,7.4-7.14,12s.36,10.08,4.55,12.16c3.08,1.53,6.73.89,10.15.56s7.36-.09,9.56,2.56c1.35,7,9,10.52,15.69,13,7.22,2.64,14.8,5.33,22.42,4.3a47.7,47.7,0,0,0,7.7-1.94l6.62-2.06c4.41-1.38,9.61-3.68,10.06-8.28,7.09,3,15,4.79,22.54,3.47s14.84-6.15,17.67-13.32S963.7,125.9,956.86,122.34ZM928.22,95a17.14,17.14,0,0,0,5.34,3.39,4,4,0,0,1,3.6,1.27,33.45,33.45,0,0,1-3.6-1.27,4.09,4.09,0,0,0-3.32,2.3,4.33,4.33,0,0,0,4.06,5.7,14.57,14.57,0,0,0-3.15,18.94c1.11,1.68,2.6,3.13,3.37,5s.54,4.38-1.2,5.39c-2.09,1.21-4.78-.6-5.77-2.8s-1-4.73-1.78-7-3.08-4.42-5.39-3.72a4.19,4.19,0,0,0-2.65,3.83,10.67,10.67,0,0,0,1.13,4.79,4.06,4.06,0,0,1-6.43.48c-1.54-2-.84-4.85-1.52-7.26a6.41,6.41,0,1,0-4.56,7.93,6.19,6.19,0,1,1-12.29-.93,19.52,19.52,0,0,0-2.33,19.61,15,15,0,0,1-5-19.34c1.44-2.58,3.73-5.66,2-8.09a3.11,3.11,0,0,0-5.67,1.81,5.32,5.32,0,0,1-1.29-7A13.62,13.62,0,0,1,866,110.41c-.76-1.87-1.07-4.09-.08-5.85a4,4,0,0,1,3-1.91A4.88,4.88,0,0,1,867.82,95a12.43,12.43,0,0,1-.88-24.35c-1.71,2.11-3.14,4.61-3.18,7.32s1.72,5.57,4.39,6.06,5.18-1.47,6.13-3.92c1.15-3,.36-6.23,0-9.37-.37-3.63-.05-7.46,1.78-10.61s5.44-5.45,9.06-4.94c3.24.45,5.89,3,7.16,6.06a20.32,20.32,0,0,1,1,9.65l5-1.36c-3.91,1.86-4.22,8.21-.75,10.79s9.07.94,11-2.92.4-9-3.11-11.51c2.67.86,5.54-.93,7.17-3.22s2.42-5,3.81-7.49,3.75-4.67,6.55-4.6q-1.14,10-2.29,20A4.4,4.4,0,0,1,929,71.94L937.82,65a17.51,17.51,0,0,1-5.15,15.78c-3.28-.89-6.83,1.73-7.62,5S925.77,92.67,928.22,95Z"/>
      <path d="M916.53,75.73a2.15,2.15,0,0,0-1.18,2.38A1.69,1.69,0,1,0,917.5,76l1.83-.4A3.81,3.81,0,0,0,916.53,75.73Z"/>
      <path d="M928.8,78A1.68,1.68,0,0,0,931,76.82l-2-.46.09-.84h0l-1,.08A1.69,1.69,0,0,0,928.8,78Z"/>
      <path d="M875,84.13l-.66.13a1.33,1.33,0,1,0,.66-.13Z"/>
      <path d="M871.13,92.81l-.06,0a.81.81,0,1,0,.06,0Z"/>
      <path d="M893.66,115.14a1.29,1.29,0,1,0,1.32,1.8A1.36,1.36,0,0,0,893.66,115.14Z"/>
      <path d="M924.36,113.09a3.9,3.9,0,0,0-1.42,3.52,2.17,2.17,0,1,0,1.34-4.12Z"/>
    </g>
  </g>
  <g id="Layer_6" data-name="Layer 6">
    <g>
      <path d="M1166.64,97.69c1.73-3.07,2.16-6.71,3.58-9.94,3-6.77,10.19-11.48,11.51-18.76,1-5.37-1.76-11-6.15-14.24s-10.17-4.2-15.56-3.43a27.3,27.3,0,0,0-15.38,7.77,10,10,0,0,1-.07,7.63c-1.24,3.21-3.46,6-4.68,9.19s-1.1,7.4,1.63,9.49c-2.34-.3-4.22,2.32-4.09,4.68s1.62,4.41,3,6.3c-3-1.85-7.53.36-7.9,3.83s3.61,6.62,6.89,5.44c1.63,2.25-.53,5.34-2.89,6.81s-5.31,2.72-6,5.4c-.57,2.07.48,4.25,1.84,5.9s3.07,3,4.2,4.86c2.58,4.15,1.54,9.76-1.23,13.78s-6.95,6.82-11,9.5a19.88,19.88,0,0,0,5.4-14.43c-.16-3.39-1.72-12.22-7-9.52s3.2,8-.94,11.57c-2,1.68-4.93.06-7-1.55L1109,133.4a8.18,8.18,0,0,1,.55,1.06,8.66,8.66,0,0,1-1.44,9.52c-2.44,2.39-6.91,2.56-9.15,0-1.57-1.8-1.85-4.44-3.34-6.31-2.1-2.65-6.22-3-9.23-1.48s-5,4.57-6.18,7.72a24.41,24.41,0,0,0-.06,16.93,3.57,3.57,0,0,1-3.13-1.55,21.46,21.46,0,0,0,10.1,15.43c7.14,4.31,16.33,4.44,24.13,1.5s14.32-8.67,19.39-15.3c7.55.15,15.25.18,22.47-2.07s14-7.12,16.66-14.19,0-16.27-6.8-19.45a13.6,13.6,0,0,0-4-23.14C1161.92,102.66,1165.11,100.43,1166.64,97.69Z"/>
      <path d="M1073.91,145c.11-5.14,2-10,3.81-14.85a13.46,13.46,0,0,1-10.68-2.85l1.8-3.4c-2.74,1.87-7.15-.88-6.67-4.16-5.16,2.11-11.8-1.63-12.67-7.13s4.3-11.11,9.86-10.69a5.09,5.09,0,0,1-.45-10.13,15,15,0,0,1-7.29-22.28c.92-1.38,2.06-2.62,2.85-4.09a5.34,5.34,0,0,0,.41-4.78c-.74-1.49-2.89-2.28-4.17-1.21a5.12,5.12,0,0,1,9.47,1.17c.71,2.83-1,5.63-2.54,8.14s-2.8,5.72-1.3,8.22c1.82,3,6.82,2.58,9.1-.15s2.41-6.63,1.9-10.14-1.58-7-1.3-10.54c.59-7.67,8.46-14,16.08-12.87s13.38,9.38,11.77,16.91l6.44-4.4.23,6.61q6.78-7.9,13.55-15.83a12.33,12.33,0,0,0,3.1-5.13,4.56,4.56,0,0,0-1.52-4.55l-.85-.43a3.24,3.24,0,0,1,.85.43,15.3,15.3,0,0,1,4.49,23.43,5.56,5.56,0,0,1,2.92,0,5.94,5.94,0,0,1,4,6.23,2.72,2.72,0,0,1,2.71-1.58,18.69,18.69,0,0,1,3.69,1c3.81,1,7.89-1.72,9.22-5.3-1.69-3.4,2.11-7.2,5.5-9.24,4.61-2.77,9.41-5.48,12.84-9.62s5.24-10.14,2.93-15c-3.15-6.62-11.88-8.08-19.19-7.67A80.78,80.78,0,0,0,1112.32,28c-2.53-10.87-13.46-18.48-24.58-19.36s-22.09,3.92-30.82,10.88c-5.18,4.13-9.84,9.18-12.27,15.34-2.11,5.35-2.33,11.63.08,16.77-6.55,1.56-13.14,3.37-18.64,7.2-6,4.22-10.55,11.51-9.29,18.77.81,4.67,3.89,9.18,2.72,13.78-.69,2.72-2.76,4.85-4.11,7.3-4.37,7.91.46,19.31,9.17,21.68a18.63,18.63,0,0,0,17.91,32.21c.79,7.07,9,11.33,16.06,10.48,6.18-.75,11.58-4.26,16.64-8q-.11-.42-.18-.84A44.43,44.43,0,0,1,1073.91,145Zm-31.7-83.32q1.74-4.11,3.5-8.22l.32.49Z"/>
      <path d="M1128.7,79.24a3.84,3.84,0,0,0-3.37,1.2,10.7,10.7,0,0,0-2,3.13,6.13,6.13,0,0,0-.83,4,3.63,3.63,0,0,0,4.5,2.28,4.83,4.83,0,0,0,3.13-4.3,7.32,7.32,0,0,0-2-5.14l2.38,1.56A2.38,2.38,0,0,0,1128.7,79.24Z"/>
      <path d="M1117.12,65.37a3.45,3.45,0,0,0-2.52,2.56,3.08,3.08,0,1,0,6.09.77,3.24,3.24,0,0,0-1.91-3l1.93.41A4.32,4.32,0,0,0,1117.12,65.37Z"/>
      <path d="M1113,70.68c.09-3.49-3.34-6.42-6.83-6.48a9.53,9.53,0,0,0-6.58,2.74,11.47,11.47,0,0,0-3.36,1.8c-2.07,1.67-3.32,4.66-2.19,7.06a5.93,5.93,0,0,0,4.26,3,13.59,13.59,0,0,0,5.38-.27,15.77,15.77,0,0,0,6.1-2.39A7.28,7.28,0,0,0,1113,70.68Z"/>
      <path d="M1090.23,120.59a1.48,1.48,0,0,0,.47-2.22,3,3,0,0,0-1.3-1,2.84,2.84,0,0,0-.76,1.36C1088.45,119.72,1089.3,120.88,1090.23,120.59Z"/>
      <path d="M1090.39,116.51l-1.92.53c.31.11.63.22.93.36A8.29,8.29,0,0,1,1090.39,116.51Z"/>
      <path d="M1081.38,121.56a2.25,2.25,0,1,0,.53.17Z"/>
      <path d="M1097.67,128.11a4.79,4.79,0,0,0,2.14,3.4c4.12,2.39,6.75-6.7,5.43-9.17C1102.28,116.8,1097,124.46,1097.67,128.11Z"/>
      <path d="M1125,115.51a1.4,1.4,0,0,0,2.17-1.11l-.09-1.61A2,2,0,0,0,1125,115.51Z"/>
      <path d="M1070.49,79.93a1.11,1.11,0,0,0,0,2.09c1,.13,1.5-1.58.6-2l.43-.41Z"/>
      <path d="M1064.46,94.38a1.07,1.07,0,0,0,1.58-.93l-1.28-.19A.86.86,0,0,0,1064.46,94.38Z"/>
      <path d="M1064.06,93.21h.31l-.3,0Z"/>
      <path d="M1064.37,93.2l.39.06a.35.35,0,0,1,.15-.07Z"/>
    </g>
  </g>
  <g id="Layer_7" data-name="Layer 7">
    <g>
      <path d="M1246,43.12l8.07,6.42c1.54,1.23,3.18,2.5,5.12,2.77,3,.42,5.88-1.73,7.58-4.28s2.6-5.54,4.17-8.17c5.29-8.88,12.82-3,17.14,3.38,1.88,2.78,1.92,6.81,4.57,9,3.81,3.12,9,.77,12-2.21,5.29-5.19,7.29-13.23,6-20.52S1305,15.65,1299.4,10.81c-2.8-2.41-6.06-4.5-9.72-5a24.11,24.11,0,0,0-3.18-.17l-4.45-.06c-9.92-.14-20.33-.16-29.08,4.5A30.81,30.81,0,0,0,1241,21.58c-2.39,4.06-3.84,9.09-2.13,13.48C1240.23,38.44,1243.18,40.85,1246,43.12Z"/>
      <path d="M1322.89,42.83c0-2.86-1.42-5.52-3-7.93-.67-1.06-1.38-2.11-2-3.2a5.46,5.46,0,0,0-.78.74l.85,16.44a4.87,4.87,0,0,0,3.69-2.26,6.61,6.61,0,0,1,.62-1.1A6.82,6.82,0,0,0,1322.89,42.83Z"/>
      <path d="M1340.32,61.3a11.41,11.41,0,0,0,9.52-9.92c.34-3.59-1-7.41.43-10.7,1.75-3.89,6.57-5.14,10.78-5.79s9-1.52,11.22-5.17.62-8.59-2.49-11.46-7.38-4.09-11.51-5a127.82,127.82,0,0,0-15.81-2.52c-6-.59-12.42-.69-17.91,1.93s-9.76,8.69-8.47,14.63a15.4,15.4,0,0,0,1.84,4.42,6.26,6.26,0,0,1,9.73,7.27c-1.08,2.6-3.8,4.25-5.35,6.55a7,7,0,0,1-.62,1.1,5.48,5.48,0,0,0-.27.71c-1.19,3.89,3.2,8.21,7.08,7A11.41,11.41,0,0,0,1340.32,61.3Z"/>
      <path d="M1364.25,50.42c-2.36,1.51-4.25,4.41-3.27,7a17.83,17.83,0,0,0-17.34,12.37c-1.68,5.64-.4,11.67.11,17.54.19,2.18.94,7.67-.57,9.51-1.36,1.66-2.5.33-4,1.16-5.51,3,1.34,6.77,4.87,7.36l8.39,1.39c5.59.93,11.74,1.77,16.59-1.18a12.17,12.17,0,0,0,5.7-9.06,24.94,24.94,0,0,0-4-16.29,19.22,19.22,0,0,0,13-11.2c2.15-5.53,1-12.34-3.14-16.55S1369.24,47.2,1364.25,50.42Z"/>
      <path d="M1368.44,127.92c-2.22-6.25-11.08-8.91-16.37-4.92.3-14.19-21.57-12.89-21.79.39-.1,5.81,5.32,10.18,7.69,15a18.64,18.64,0,0,1-.18,16.9c-2.15,3.93-5.89,7.67-5.11,12.08.87,4.89,6.62,7,11.46,8.11,3.51.84,7.59,1.56,10.44-.66,2.29-1.78,3.14-5,5.6-6.56s5.51-.81,8.35-.69c10.69.47,20.75-9.18,20.72-19.88S1379.13,127.4,1368.44,127.92Z"/>
      <path d="M1317.27,127.53c-1.72,1.91-.62,4.88,0,7.39a11.44,11.44,0,0,1-1.83,9.55c-2.09,2.62-5.94,3.9-9,2.52-3.72-1.7-5.24-6.5-9-8.23a7.55,7.55,0,0,0-7.56,1,10,10,0,0,0-3.7,6.87L1284,141c-4.58,6.52-9.3,13.4-10.25,21.31s3.3,17.07,11.09,18.74c3.23.7,6.67.06,9.85,1,4.62,1.32,8.52,5.8,13.25,5,4.93-.84,7-6.67,8.06-11.55q1.69-7.63,3.41-15.26c.43-1.92.86-3.85,1.28-5.77q1.86-8.51,3.57-17c.53-2.69,1-5.62-.18-8.08S1319.12,125.5,1317.27,127.53Z"/>
      <path d="M1252.63,135c-5.06-1-10.23,1.83-15.34,1.17a11.44,11.44,0,0,1-7.57-18.37,2.54,2.54,0,0,0-2,.25l.73-2a16.17,16.17,0,0,0-4,17.09c.86,2.3,2.26,4.39,2.87,6.77.69,2.72.28,5.59.55,8.38a17.14,17.14,0,0,0,32.5,5.76,14.94,14.94,0,0,0,.76-11.52A11.78,11.78,0,0,0,1252.63,135Z"/>
      <path d="M1221.59,99.14c2.6,1,5.48.11,8.2-.41s6-.54,7.78,1.58c2.63,3.08.27,8.29,2.53,11.65s8.14,2.31,10.26-1.2,1.33-8.07-.42-11.78-4.37-7-6-10.72a22.56,22.56,0,0,1-1.76-10.61c.23-3.05,1.08-6,1.2-9.09s-.66-6.38-3-8.3c-9.54-7.75-15.14,9.2-18.15,14.71C1219.11,80.67,1211.86,95.47,1221.59,99.14Z"/>
      <path d="M1238.66,122.12a2.55,2.55,0,0,0,3.79.36,3.5,3.5,0,0,0,.51-4,4.31,4.31,0,0,0-3.3-2.3l.89,3.07C1239.13,118.92,1237.93,120.86,1238.66,122.12Z"/>
      <path d="M1230.9,106.75l1.86.31-.67-3.24-1.59,1.11,1.83,1.08-1.37-.69Z"/>
      <path d="M1215.45,115.54a9.1,9.1,0,0,0,2.39-7.67c-1.61-9.78-9.9-3.83-11.31,2.55-.52,2.33-.15,5.13,1.81,6.49C1210.5,118.41,1213.63,117.43,1215.45,115.54Z"/>
      <path d="M1216.91,62.28a12.35,12.35,0,0,0-2.21,4.51c-.14.43-.27.86-.39,1.3C1214.71,66.61,1220.93,65.72,1216.91,62.28Z"/>
      <path d="M1209.93,133.84c-2.21,3.76.49,11.06,2.14,14.49,1.11,2.32,2.91,4.71,5.47,4.92,2.85.24,5.19-2.38,6.08-5.09a12.86,12.86,0,0,0-3.12-12.86C1218,132.79,1212.29,129.83,1209.93,133.84Z"/>
      <path d="M1299.52,128.45a1.58,1.58,0,0,0,1.5,2.08,2.06,2.06,0,0,0,1.52-2.57,5.45,5.45,0,0,0-2-2.66l1.52,2.79A1.58,1.58,0,0,0,1299.52,128.45Z"/>
      <path d="M1330.52,81.85a3.11,3.11,0,0,0-.41.2l.66.36Z"/>
      <path d="M1329.81,81.88l.23.2.07,0Z"/>
      <path d="M1331.52,87.54a2.66,2.66,0,0,0,.48-3.11,7.13,7.13,0,0,0-2-2.35,3.89,3.89,0,0,0-2.2,3.62C1328,87.37,1330.22,88.61,1331.52,87.54Z"/>
      <path d="M1305.17,69.84a3.77,3.77,0,0,0-3.33-3.72l2.42-.46a5.67,5.67,0,0,0-4.34.61,4.21,4.21,0,0,0-2,3.79,3.63,3.63,0,0,0,7.25-.22Z"/>
      <path d="M1317.84,64a1.29,1.29,0,0,0-.32,1.79,1.08,1.08,0,0,0,1.8-.52,1.1,1.1,0,0,0-1-1.13l1.45-.3A2.13,2.13,0,0,0,1317.84,64Z"/>
      <path d="M1268.17,119.11a11.09,11.09,0,0,0-4.12-2.57,3.84,3.84,0,0,0-4.33,1.42l3.36,2.12a5.07,5.07,0,0,0-5.38,1.7,6.41,6.41,0,0,0,.44,7.58,9.72,9.72,0,0,0,7.2,3.31c3.24.15,7-1.4,7.74-4.54A6.62,6.62,0,0,0,1272,123,20.07,20.07,0,0,0,1268.17,119.11Z"/>
      <path d="M1253,68.3c-1.08,2.2-.38,5.44,2,6.18s4.64-1.38,4.74-3.7a5.83,5.83,0,0,0-3.79-5.3l2.56-2C1256.36,64.72,1254.12,66.09,1253,68.3Z"/>
    </g>
  </g>
  <g id="Layer_8" data-name="Layer 8">
    <g>
      <path d="M1436.19,87c.73-3.18-.15-6.48-1-9.63s-1.65-6.48-.79-9.63c.38-1.38,1.07-2.68,1.31-4.09a3.66,3.66,0,0,0-1.37-3.81l-.29-.13.19-.15c-2.89-.89-5.68,1.66-7.3,4.23a28.47,28.47,0,0,0-3.49,21.72c.78,3.15,2.62,6.59,5.83,7.09S1435.46,90.18,1436.19,87Z"/>
      <path d="M1440.92,110.51a5.82,5.82,0,0,0,4.36-.16,4.7,4.7,0,0,0,2.07-1.75c3-4.72-2-9.3-6.63-7.57C1435.67,102.94,1435.65,108.59,1440.92,110.51Z"/>
      <path d="M1457.79,146.28a4.84,4.84,0,0,0-4.89.12,25.67,25.67,0,0,0-4,3.2,12.12,12.12,0,0,1-7.11,3.18c-2.64.11-5.45-1.3-6.38-3.78-.55-1.46-.4-3.09-.67-4.63s-1.19-3.2-2.74-3.42-3,1.22-3.76,2.65a15.54,15.54,0,0,0,4.12,19.32,16.49,16.49,0,0,0,10,3.17A17.88,17.88,0,0,0,1460,148.45l-.58.87A4.18,4.18,0,0,0,1457.79,146.28Z"/>
      <path d="M1422.25,122l.52-.67a14.12,14.12,0,0,0,.58,12.14,15.05,15.05,0,0,0,0-13.82Z"/>
      <path d="M1410.3,138.74c-4,2.2,3.66,11.12,6.81,9.43C1420.08,146.58,1411.9,137.86,1410.3,138.74Z"/>
      <path d="M1408.76,106.46l-1.47,1.94.79-2.67a14.61,14.61,0,0,0-3.79,3.24,5,5,0,0,0-.83,4.72c.66,1.53,2.7,2.47,4.12,1.59a3.61,3.61,0,0,0,1-.92A7,7,0,0,0,1408.76,106.46Z"/>
      <path d="M1525.19,134a4.75,4.75,0,0,0-4-2.85c1.11,5.26.46,11-2.51,15.5s-8.38,7.41-13.75,6.63c-4.22-.61-8.09-5.71-12-5.86-4.4-.17-2.2,6.79-1.32,9.9,1.78,6.29,6.45,7.87,12.5,8.41,5,.44,10.29.8,14.6-1.68,4-2.3,6.41-6.72,7.33-11.24s.55-9.18.17-13.78A14.09,14.09,0,0,0,1525.19,134Z"/>
      <path d="M1510.58,169.89a62.35,62.35,0,0,1-20.8-.53c-3.29-.65-6.67-1.64-9.11-3.94s-1.92-8.5-6.1-6.4c-3.19,1.6-3.66,7.71-2.75,10.59,1.56,4.92,6.3,8.32,11.31,9.58s10.28.71,15.38-.09a21.57,21.57,0,0,0,7.94-2.41C1508.83,175.24,1510.72,172.67,1510.58,169.89Z"/>
      <path d="M1483.84,147.87a4.9,4.9,0,0,0-1.19-4.79,4.94,4.94,0,0,0-3.47-1.41A5.49,5.49,0,0,0,1483.84,147.87Z"/>
      <path d="M1477.86,141.86a4.53,4.53,0,0,1,1.32-.19,3.65,3.65,0,0,1,.13-.55Z"/>
      <path d="M1583.64,138.33c-1.69-1.62-10.27-8.77-12.79-7.61-2,.89.52,5,.93,6.68,2.42,9.9-6.74,18.56-16.23,19.49a11,11,0,0,0-3.39.58,2.78,2.78,0,0,0-1.84,2.64c.17,1.48,1.84,2.22,3.26,2.68,6.51,2.09,13.24,4.2,20.05,3.6s13.79-4.65,15.7-11.21C1591.07,149.19,1588.16,142.63,1583.64,138.33Z"/>
      <path d="M1539.91,148.2a8.2,8.2,0,0,0,4.19,1,15.85,15.85,0,0,0,14-8.79,15.08,15.08,0,0,0-1.2-15.14c-1.6-2.17-6.83-9.9-10.07-6.74-1.36,1.32-.76,3.66.38,5.18s2.74,2.76,3.36,4.55c1,2.77-.79,5.82-3.07,7.67s-5.08,3-7.38,4.81a5.56,5.56,0,0,0-2.4,3.94A4.24,4.24,0,0,0,1539.91,148.2Z"/>
      <path d="M1569.76,84c-4.67,2,1.26,5.36-.89,9.36a5.11,5.11,0,0,1-6,2.61c-2.91-.85-2.5-3-3.89-4.81,1.16,1.55,3.92,1.25,4.94-.41a3.92,3.92,0,0,0-1.34-5.1,5.22,5.22,0,0,0-5.52.18,7.87,7.87,0,0,0-3.17,4.74,10.64,10.64,0,0,0,13.69,12.71C1575.68,100.5,1579,80,1569.76,84Z"/>
      <path d="M1557.82,61.47c3.82,6.83,14.32-7.37,18.33-1.88,1,1.33.6,3.23-.19,4.68S1574,67,1573.44,68.5s-.44,3.57,1,4.45a3.37,3.37,0,0,0,4-.72,9.69,9.69,0,0,0,2.09-3.8,25.4,25.4,0,0,0,1.89-7.48,9,9,0,0,0-2.52-7.07,9.9,9.9,0,0,0-6.48-2.2C1570,51.6,1554.8,56.08,1557.82,61.47Z"/>
      <path d="M1551.22,49a17.82,17.82,0,0,0,1.43-15.73c4.74-.5,9.62-1,13.86-3.22s7.76-6.45,7.65-11.22c-.09-4-2.68-7.55-6-9.77s-7.19-3.29-11.07-4.14a23.22,23.22,0,0,0-9.07-.66c-3,.55-5.94,2.39-7,5.26s.45,6.64,3.42,7.35c3.25.79,7.58-1.74,9.55,1,1.25,1.71.14,4.23-1.56,5.47s-3.86,1.69-5.74,2.64c-6.19,3.13-8.12,12.39-3.71,17.74a4.09,4.09,0,0,0-4.5,5,4.08,4.08,0,0,0,6.52,1.5l-7.34,7.06A17.81,17.81,0,0,0,1551.22,49Z"/>
      <path d="M1524.56,15.16a6.43,6.43,0,0,0-7.46.17,5.68,5.68,0,0,0,.48,8.66l.29-2.94a43.67,43.67,0,0,0,1.31,12.83c.57,2.26,2,4.93,4.29,4.8-.81-2.91,1.34-5.69,2.81-8.32a14.66,14.66,0,0,0,2-8.45A9.09,9.09,0,0,0,1524.56,15.16Z"/>
      <path d="M1483.09,23c4.49.54,7.66,4.48,10.68,7.85s7.28,6.68,11.64,5.46c4.75-1.33,6.52-7.39,5.6-12.24-1.47-7.71-7.7-14-15.08-16.68s-15.7-1.92-23,.87-13.77,7.54-19.55,12.85a17.05,17.05,0,0,0-4,4.79l-.28-2c-.73,3-1.47,6.17-1.18,9.29s1.8,6.32,4.56,7.8c3.75,2,8.54.27,11.68-2.6s5.22-6.7,8-9.93S1478.87,22.48,1483.09,23Z"/>
      <path d="M1453,68.33a1.66,1.66,0,1,0-.92-1.75l1.94-.72-1,.43Z"/>
      <path d="M1442.44,25.51a19.58,19.58,0,0,1,5.76-13.33A10.1,10.1,0,0,0,1450,10.1a2.49,2.49,0,0,0,0-2.64c-3.06-4.09-14.93,12.46-16.15,15.59C1430.51,31.71,1442.15,38.08,1442.44,25.51Z"/>
      <path d="M1555,68.86l.39,0a1.16,1.16,0,0,0-.78-.31Z"/>
      <path d="M1553.42,79a6.17,6.17,0,0,0,5.71-2.22,5.22,5.22,0,0,0,.22-6,4.69,4.69,0,0,0-4-1.92,1.58,1.58,0,0,1,.11,2.33,3.78,3.78,0,0,0-5.2-.87,4.57,4.57,0,0,0-1.39,5.3A5.79,5.79,0,0,0,1553.42,79Z"/>
      <path d="M1555.33,69.16l-.34-.3a3.76,3.76,0,0,0-1.33.42Z"/>
      <path d="M1564.21,68a1.26,1.26,0,0,0,1.92-.76,1.87,1.87,0,0,0-1.17-2l-.9.43,1,.75C1564.24,66.15,1563.59,67.46,1564.21,68Z"/>
      <path d="M1568.55,75a1.9,1.9,0,1,0-.22,3.69l-1.07-2.91,1.29-.73Z"/>
      <path d="M1586.67,61.93a2.16,2.16,0,0,0,1.9-3,2.77,2.77,0,0,0-3.74-1l1.12.9C1584.65,59.43,1585.23,61.8,1586.67,61.93Z"/>
      <path d="M1541.21,124.33a14.42,14.42,0,0,0-.44-4.52l-.27-1.22a3.71,3.71,0,0,1-.41.73c-1,1.39-2.6,2.22-3.84,3.4s-2.15,3.11-1.28,4.59a3,3,0,0,0,4,.83A4.93,4.93,0,0,0,1541.21,124.33Z"/>
      <path d="M1539.65,114.82l.85,3.77C1541.08,117.22,1540.93,115.48,1539.65,114.82Z"/>
      <path d="M1555.74,169c-3.33-1.45-7.06,3.62-10.3,2a7.45,7.45,0,0,1-2.17-2.23c-.1-.12-.2-.25-.31-.37l1.33-.35a3.75,3.75,0,0,0-3.1-.82,2.63,2.63,0,0,0-.49-.06,1.66,1.66,0,0,0-1.29.78,3.41,3.41,0,0,0-1.25,1.53c-1,2.43.76,5.16,2.9,6.67a12.94,12.94,0,0,0,12.35,1.33,7,7,0,0,0,4-3.67C1558.07,172,1557.45,169.72,1555.74,169Z"/>
      <path d="M1508.29,183.59c-2,.38-3.58,2-5,3.51l-2.16-.2c1.32,2.3,4.36,3,7,2.78,1.86-.16,4-1,4.34-2.86C1512.82,184.78,1510.33,183.2,1508.29,183.59Z"/>
      <path d="M1416.73,90.76c-.07-.71-.13-1.43-.19-2.14v0a8.85,8.85,0,0,0-1,3,3,3,0,0,0,1.22,2.82,2.19,2.19,0,1,0,0-3.76Z"/>
      <path d="M1484,156.62a1.71,1.71,0,0,0,.79-2.79,2,2,0,0,0-3,.6l.87,0A1.51,1.51,0,0,0,1484,156.62Z"/>
      <path d="M1496,140.75l-.22-2a2.41,2.41,0,0,0-.54,2.53,1.8,1.8,0,0,0,2.26,1A1.46,1.46,0,0,0,1498,140,1.22,1.22,0,0,0,1496,140.75Z"/>
      <path d="M1564.27,129.85l.65-1.14-2.25-.07,1.44.34C1563.7,129.12,1563.84,129.87,1564.27,129.85Z"/>
      <path d="M1558.77,146.33a1.45,1.45,0,0,0,2.48.06c.53-1-.54-2.32-1.7-2.46a5.5,5.5,0,0,0-3.29,1l3.26-.4A1.45,1.45,0,0,0,1558.77,146.33Z"/>
      <path d="M1545.49,101.6a1.91,1.91,0,0,0,2.79.62,2.13,2.13,0,0,0,.24-2.93,2.41,2.41,0,0,0-3-.45l1.42.42A1.73,1.73,0,0,0,1545.49,101.6Z"/>
      <path d="M1534.82,41.93a2.63,2.63,0,0,0-2.65-1.78l-1.29-.11a3.53,3.53,0,0,0,2.79,4.86A2.64,2.64,0,0,0,1534.82,41.93Z"/>
      <path d="M1539.45,24.7a1,1,0,0,0-1-1.42l.44.43A.63.63,0,0,0,1539.45,24.7Z"/>
    </g>
  </g>
  <g id="Layer_9" data-name="Layer 9">
    <g>
      <path d="M1628.39,81.38c1.78,1.15,4.26-.15,5.29-2a6.9,6.9,0,0,0-.19-6.77l.9,1-.45-8.21a3.39,3.39,0,0,0-.56-2c-.8-.93-2.42-.64-3.25.26A6.55,6.55,0,0,0,1628.8,67c-.54,2.81-1.07,5.63-1.61,8.44C1626.78,77.55,1626.59,80.2,1628.39,81.38Z"/>
      <path d="M1630.27,90.65c.47,1.37,1.94,2.51,3.33,2.09,1.65-.49,2.08-2.71,1.6-4.36a4.22,4.22,0,0,0-2.57-3c-1.32-.4-3,.51-3,1.88l.68-.89A8.58,8.58,0,0,0,1630.27,90.65Z"/>
      <path d="M1640.4,151.47c-2-.86-4.29-1.19-6.09-2.41l-2.43-4.6c-.52-1-1.3-2.13-2.41-2s-1.63,1.37-1.82,2.44a13.31,13.31,0,0,0,9.67,14.69,7.4,7.4,0,0,0,4.12-.05,4.05,4.05,0,0,0,2.71-2.92C1644.56,154.35,1642.51,152.37,1640.4,151.47Z"/>
      <path d="M1653.92,143.25l1.42,4.91a10.15,10.15,0,0,0-2.77,4.51c-.34,1.75.6,3.89,2.37,4.18,2,.33,3.63-1.89,4-3.93A9.45,9.45,0,0,0,1653.92,143.25Z"/>
      <path d="M1642.07,105.84l1-.88a2.31,2.31,0,0,0-2.27,2.16,2.11,2.11,0,0,0,2.27,2,1.94,1.94,0,0,0,1.47-2.6A1.83,1.83,0,0,0,1642.07,105.84Z"/>
      <path d="M1625.85,124.59a3.74,3.74,0,0,0-.92,2.22c0,.81.91,1.61,1.64,1.24,1-.5.39-2-.34-2.86Z"/>
      <path d="M1686.59,166.58a5.57,5.57,0,0,0-6.79,1.06c-.2-.41-.38-.83-.55-1.24-.64-1.48-1.67-3.12-3.29-3.23-2.09-.15-3.4,2.59-2.71,4.57s2.58,3.26,4.34,4.4a16.3,16.3,0,0,0,4.81,2.4,5.5,5.5,0,0,0,5.06-1C1689.41,171.65,1688.85,168,1686.59,166.58Zm-6,2.43,1.48,1.17A3.33,3.33,0,0,1,1680.61,169Z"/>
      <path d="M1697.45,170.41a8.11,8.11,0,0,0-4.29-.44c-2,.44-3.65,2.6-2.83,4.44a3.32,3.32,0,0,0,2.71,1.78,7.43,7.43,0,0,0,3.32-.55c1.38-.5,2.85-1.31,3.25-2.72S1698.63,170,1697.45,170.41Z"/>
      <path d="M1708.4,168.47l.83,1.36a1,1,0,0,0-1.38.29,1.11,1.11,0,0,0,1.2,1.41,1.4,1.4,0,0,0,1-1.73A2,2,0,0,0,1708.4,168.47Z"/>
      <path d="M1709.54,153.62a12.3,12.3,0,0,0-3.73-1.12,6.44,6.44,0,0,0-3.4,0,2.6,2.6,0,0,0-1.15.82,7.11,7.11,0,0,0-1.68-1.56,3.32,3.32,0,0,0-3.52-.18,3.11,3.11,0,0,0-1.18,3,6,6,0,0,0,1.57,3,11.78,11.78,0,0,0,10.51,3.76c2.47-.39,5.15-2.23,4.85-4.71A4.18,4.18,0,0,0,1709.54,153.62Z"/>
      <path d="M1719.46,147.63c.24.61.48,1.24.68,1.87a6.31,6.31,0,0,1,.88.23Z"/>
      <path d="M1715.34,151c-1.25,1.66-.46,4.61,1.59,4.93,1.75.28,3.32-1.41,3.58-3.17a7.23,7.23,0,0,0-.37-3.28A4.83,4.83,0,0,0,1715.34,151Z"/>
      <path d="M1724.53,134.67a3.23,3.23,0,0,0-1.12-1.49,1.34,1.34,0,0,0-1.72.18c-.38.5,0,1.42.65,1.33l.58,1.93a7,7,0,0,0-1.52,3.07,2.41,2.41,0,0,0,1.61,2.7,2.29,2.29,0,0,0,2.38-1.42,5.07,5.07,0,0,0,.18-2.94A13.64,13.64,0,0,0,1724.53,134.67Z"/>
      <path d="M1742.76,169.87c-.75-1.59-3.51-1.57-4.32,0a2.92,2.92,0,0,0,2.52,3.93,3.42,3.42,0,0,0,3.25-3.68Z"/>
      <path d="M1751.35,173.9a3.25,3.25,0,0,0-2.25,1.82,2.56,2.56,0,0,0,.84,3c1.58,1,4-.73,3.66-2.59A3,3,0,0,0,1751.35,173.9Z"/>
      <path d="M1751.24,173.87l.11,0a3.2,3.2,0,0,1,.41-.07Z"/>
      <path d="M1749.18,174l2.06-.16A3.23,3.23,0,0,0,1749.18,174Z"/>
      <path d="M1776.94,156.37c-2.76-.07-11.15,1.41-13.71,2.86-5.32,3-.8,7.68,3.91,7.52l5.35-.18c2.26-.08,4.61-.17,6.61-1.22s3.55-3.34,3-5.53S1779.15,156.43,1776.94,156.37Z"/>
      <path d="M1784.22,138.27c-1-1.71-2.55-3.38-4.53-3.52-2.63-.18-4.72,2.53-4.86,5.15s1.08,5.11,2.27,7.45l2.6-4.79c1.18,1.61.87,3.82,1.1,5.81s1.71,4.28,3.66,3.82c1.61-.38,2.2-2.37,2.27-4A18.18,18.18,0,0,0,1784.22,138.27Z"/>
      <path d="M1750.07,151c1.6-2,2.17-4.65,2.7-7.18.3-1.43.44-3.25-.79-4-1.43-.91-3.22.49-4.15,1.9s-1.92,3.18-3.61,3.27l2-2.76a8.18,8.18,0,0,0-5,4.67,5.16,5.16,0,0,0,2.09,6.16C1745.52,154.22,1748.48,153,1750.07,151Z"/>
      <path d="M1751,119.93a12.78,12.78,0,0,0,4.11,12.42l-.3-2.19.2.12a2.57,2.57,0,0,0,3.52-1.69,4.35,4.35,0,0,0-1.13-3.36A17.68,17.68,0,0,0,1751,119.93Z"/>
      <path d="M1758.85,92a3.1,3.1,0,0,0,.27-3.75,2.9,2.9,0,0,0-3.11-.74,5.82,5.82,0,0,0-2.64,2,11.92,11.92,0,0,0-1.69,2.83,6.4,6.4,0,0,0-.48,4.31,3.35,3.35,0,0,0,3.25,2.5c1.47-.12,2.64-1.93,1.88-3.2l-.82-1.73A9.14,9.14,0,0,0,1758.85,92Z"/>
      <path d="M1763.73,108.17a8.24,8.24,0,0,0,3.12-1.09,2.47,2.47,0,0,0-1.83-4.56,5.57,5.57,0,0,0-1.92.67l1.13-.71a8.89,8.89,0,0,0-4.29.63,3.07,3.07,0,0,0-1.73,3.6,3,3,0,0,0,2.43,1.71A9,9,0,0,0,1763.73,108.17Z"/>
      <path d="M1775.29,94a6.57,6.57,0,0,0-.06-3c-.24-1.4-.57-3-1.71-3.81s-3.28-.27-3.22,1.16l1.83,2.08a6.8,6.8,0,0,0-.89,3.07,2,2,0,1,0,4,.52Z"/>
      <path d="M1757.07,80.07a2.39,2.39,0,0,0,2.49-2.94,3.12,3.12,0,0,0-3.66-2l.6,1.5C1755.11,77.28,1755.57,79.79,1757.07,80.07Z"/>
      <path d="M1766.66,55.93a2.94,2.94,0,0,0-3.15,2l.2,1a8,8,0,0,0-3.58-.38,2.42,2.42,0,0,0-.05,4.84,7.91,7.91,0,0,0,3.54-.3,11.19,11.19,0,0,0,3.54-1.27,3.89,3.89,0,0,0,1.94-3.06A2.94,2.94,0,0,0,1766.66,55.93Z"/>
      <path d="M1777.65,70.77a16,16,0,0,0-4.48-17.4c1.08,2.33,2.15,4.67,3.23,7l-2.31-.83a6.69,6.69,0,0,1,1.21,9,16.93,16.93,0,0,0-1.53,2,2.06,2.06,0,0,0,.08,2.32,1.88,1.88,0,0,0,2.38.07A4.49,4.49,0,0,0,1777.65,70.77Z"/>
      <path d="M1745.1,53c-1.24.88-2.56,1.89-2.92,3.37s1,3.35,2.4,2.88c.93-.3,1.38-1.34,1.71-2.26,1.1-3.07,7.3-14.39.84-14.05C1742.26,43.23,1739.19,53.42,1745.1,53Z"/>
      <path d="M1745,35.3a1.88,1.88,0,0,0,.3,2.17,1.92,1.92,0,0,0,2.17.33,2,2,0,0,0-1.06-2.24Z"/>
      <path d="M1753.9,34.64l-.62,2.48a1.87,1.87,0,0,0,3.22-.51A1.87,1.87,0,0,0,1753.9,34.64Z"/>
      <path d="M1762.38,26.9a17.36,17.36,0,0,0,.24-3.81,48,48,0,0,1-3.23-3.87Z"/>
      <path d="M1755.11,13a10.26,10.26,0,0,1,6,4.73,12,12,0,0,1,1.48,5.41,20,20,0,0,0,1.79,1.66,10.78,10.78,0,0,0,6.85,2.63,8.2,8.2,0,0,0,7.36-5.36,8.22,8.22,0,0,0-2.4-8.78,16.12,16.12,0,0,0-4.07-2.24l-4.6-2L1761,6.18a18.74,18.74,0,0,0-5.18-1.65A6.27,6.27,0,0,0,1750.74,6a3.83,3.83,0,0,0-.52,4.94C1751.35,12.34,1753.38,12.46,1755.11,13Z"/>
      <path d="M1746.69,12.45a1.41,1.41,0,0,0-2.13-1.41l.8.4A1,1,0,0,0,1746.69,12.45Z"/>
      <path d="M1671.08,12.78c-3.77-1.63-9.18-.76-12.08,2.1s-4,7.45-5.59,11c-.85,2-3.15,5.46-2.34,7.7,1.07,2.92,4.23,2.5,5.86.12,1.11-1.62,1.53-3.66,2.71-5.23,1.46-1.93,3.82-2.87,5.93-4.06C1669.36,22.31,1678.08,15.79,1671.08,12.78Z"/>
      <path d="M1692.89,15.48a3.52,3.52,0,0,0-6.66-2,8,8,0,0,0-3.65-2.44c-1.62-.39-3.67.53-3.83,2.19a3,3,0,0,0,1.38,2.6,8.73,8.73,0,0,0,2.86,1.15l4.67,1.26a7.15,7.15,0,0,0,1.65.3A3.65,3.65,0,0,0,1692.89,15.48Z"/>
      <path d="M1698.68,19.65a2.69,2.69,0,0,0,2.85,2.27,2.86,2.86,0,0,0,2.14-4,2.86,2.86,0,0,0-4.53-.39l.3.17A2.43,2.43,0,0,0,1698.68,19.65Z"/>
      <path d="M1698,35.76a4.47,4.47,0,0,0,4.25.76,4.19,4.19,0,0,0,2.62-5.07,3.62,3.62,0,0,0-5.17-1.83l.09.53a2.72,2.72,0,0,0-3,1.73A3.63,3.63,0,0,0,1698,35.76Z"/>
      <path d="M1743.71,120.16a2.27,2.27,0,0,0,2.77,2,2.83,2.83,0,0,0,1.93-3,3.75,3.75,0,0,0-2.4-2.88l.47,2.34A1.9,1.9,0,0,0,1743.71,120.16Z"/>
      <path d="M1771,78.31a1.37,1.37,0,0,0,2.22.22,2.11,2.11,0,0,0-1.26-3l.3.92A1.36,1.36,0,0,0,1771,78.31Z"/>
      <path d="M1773.89,150.36a2.38,2.38,0,0,0-1.61-2.87l.25,1.87-1.56,2.51A2.38,2.38,0,0,0,1773.89,150.36Z"/>
      <path d="M1766.87,141.91l-.45.16a1.48,1.48,0,1,0,.45-.16Z"/>
      <path d="M1706.28,37.42h0l.06-.16Z"/>
      <path d="M1707.76,39.3a1.53,1.53,0,0,0-1.45-1.88l-.85,2.57A1.53,1.53,0,0,0,1707.76,39.3Z"/>
      <path d="M1709.72,26.43c.53-1-.68-2.47-1.74-2l-.76.3.5-1.17a2.14,2.14,0,0,0-.88,2.94A1.77,1.77,0,0,0,1709.72,26.43Z"/>
      <path d="M1657.81,70.35c.18-.48-.91-.57-.81-.06l-.1-.23a1.76,1.76,0,0,0-.42,1.69,1.53,1.53,0,0,0,2.45.61C1659.6,71.6,1658.8,70.1,1657.81,70.35Z"/>
      <path d="M1657.91,69.45l-1.36-.17.35.78A1.9,1.9,0,0,1,1657.91,69.45Z"/>
      <path d="M1739.23,101.24a1.12,1.12,0,0,0,.67-1.72,1.07,1.07,0,1,0-.67,1.72Z"/>
      <path d="M1738.57,129.8a2,2,0,0,0-1.85-2.92l.06-.78a2.5,2.5,0,0,0-1.83,3.34A2.2,2.2,0,0,0,1738.57,129.8Z"/>
      <path d="M1606.52,108.66h0l.09-.09Z"/>
      <path d="M1606.53,108.67a4.55,4.55,0,0,0-1.52,2.12c-.22.91.33,2,1.26,2.08s1.53-1,1.44-1.87A4.72,4.72,0,0,0,1606.53,108.67Z"/>
      <path d="M1635.75,32.81q2-4.92,4-9.85a6.56,6.56,0,0,0,.69-2.88,2.24,2.24,0,0,0-1.73-2.15c-1-.13-2,1.08-1.42,1.91l1.16,0A12.56,12.56,0,0,0,1635.75,32.81Z"/>
      <path d="M1642.88,16.52a2.11,2.11,0,0,0,.82-2.61l-.44-.68A2,2,0,0,0,1642.88,16.52Z"/>
      <path d="M1649.71,11.12l.64-.93a1.81,1.81,0,0,0,.58,3.48A1.75,1.75,0,0,0,1649.71,11.12Z"/>
    </g>
  </g>
  <g id="Layer_10" data-name="Layer 10">
    <g>
      <path d="M1959.68,22.05l2.5,2.66c9.12,9.73,15.8-7.15,8.23-13.85S1952.45,14.33,1959.68,22.05Z"/>
      <path d="M1956.34,4a1.82,1.82,0,0,0,.14.39,1.25,1.25,0,0,1,.45-.18Z"/>
      <path d="M1956.93,4.21l1.81.64A1.89,1.89,0,0,0,1956.93,4.21Z"/>
      <path d="M1956.44,6.54c.76.4,1.81-.61,1.34-1.32a1.53,1.53,0,0,1-1.3-.83l0,0A1.31,1.31,0,0,0,1956.44,6.54Z"/>
      <path d="M1951.09,11.12a1.55,1.55,0,0,0-.26-2.39l-.84-.18a1.54,1.54,0,0,0-1.24,2A1.55,1.55,0,0,0,1951.09,11.12Z"/>
      <path d="M1946.75,43.24a1.72,1.72,0,0,0-1.72,1.58l-.07-.35a3,3,0,0,0-2.09,4.12,3.41,3.41,0,0,0,4.64,1.25,4,4,0,0,0,1.5-4.74A2.75,2.75,0,0,0,1946.75,43.24Z"/>
      <path d="M1958.25,56.49l-.34.37a2.11,2.11,0,0,0-3.43,0,2.54,2.54,0,0,0,1.13,3.46,3.15,3.15,0,0,0,3.68-1,4.21,4.21,0,0,0,.5-3.91A1.19,1.19,0,0,0,1958.25,56.49Z"/>
      <path d="M1973.45,60.64a1.44,1.44,0,0,0,.14,2.4,2.66,2.66,0,0,0,.2-4.06l-.35.68Z"/>
      <path d="M1974.07,67.18l-.91.32.72,0a.87.87,0,0,0-.33,1.55A1.29,1.29,0,0,0,1974.07,67.18Z"/>
      <path d="M1954.2,88a2.67,2.67,0,0,0-2.76,2.76,2.24,2.24,0,0,0,3.33,1.56c1.18-.89.58-3.23-.9-3.29l.38-.09Z"/>
      <path d="M1953,98.41a2.36,2.36,0,0,0,0-4l-2,2.35-1.25-.7A2.36,2.36,0,0,0,1953,98.41Z"/>
      <path d="M1981.26,146.2l-2.1-6c-.71-2.05-2-4.48-4.12-4.46a3.45,3.45,0,0,0-3,2.39,6.25,6.25,0,0,0-.26,2.72l5.81,2.12c-.7,2.85-1.41,5.7-2.11,8.55l2.08-1.15c-.81,1.14.5,2.86,1.88,2.74a3.15,3.15,0,0,0,2.55-2.89A9.25,9.25,0,0,0,1981.26,146.2Z"/>
      <path d="M1972,142.18c-.08-.42-.15-.86-.19-1.29l-.1,0Z"/>
      <path d="M1975.81,158.62a14.81,14.81,0,0,0-10.59,2.36,4.18,4.18,0,0,0-1.79-.38,1.92,1.92,0,0,0-1.9,1.66c0,1.47,2,1.93,3.42,1.93l9.56-.05a8,8,0,0,0,3-.41,2.67,2.67,0,0,0,1.76-2.27C1979.28,159.83,1977.42,158.89,1975.81,158.62Z"/>
      <path d="M1941.19,146.07c-.83.34-1.06,1.7-.27,2.12l.75.94a1.72,1.72,0,1,0,.38,3.35c1.11-.34,1.57-1.66,1.71-2.82a4.39,4.39,0,0,0-.33-2.61A1.92,1.92,0,0,0,1941.19,146.07Z"/>
      <path d="M1945.35,140.46l.59,1.69.37-.94.15,3.54a2.23,2.23,0,1,0-1.11-4.29Z"/>
      <path d="M1874.42,164.36a3.88,3.88,0,0,0-3-2.07,2.9,2.9,0,1,0,.83,5.64,3.06,3.06,0,0,0,1.8-3.55l1.47,3.62A10.43,10.43,0,0,0,1874.42,164.36Z"/>
      <path d="M1881.73,166.73l-.65,1.53a2.62,2.62,0,0,0-2.16,3.56,3.15,3.15,0,0,0,4.19,1.36,3.41,3.41,0,0,0-1.38-6.45Z"/>
      <path d="M1896,155.17a2.69,2.69,0,0,0-.15-3.5l.91.77a3,3,0,1,0-4.25,3.43A2.93,2.93,0,0,0,1896,155.17Z"/>
      <path d="M1905.46,151.9l2,2.9c-1.15-.41-2.24,1.31-1.52,2.3a2,2,0,0,0,3.11-.23,2.9,2.9,0,0,0-.4-3.38A5.35,5.35,0,0,0,1905.46,151.9Z"/>
      <path d="M1838.75,154.24a3.55,3.55,0,0,0-3.72-.31l1.64.73a3.75,3.75,0,0,0-4.27,2.5,4,4,0,0,0,3.59,4.73,4.44,4.44,0,0,0,4.39-4.23A4.17,4.17,0,0,0,1838.75,154.24Z"/>
      <path d="M1826.49,144.92l.34,1.67a1.66,1.66,0,1,0,1.29,2.82,2.28,2.28,0,0,0,.23-2.54A6.07,6.07,0,0,0,1826.49,144.92Z"/>
      <path d="M1850.41,149.58l2.45,2.91-1.56-.52a2,2,0,1,0,3,2.42,2.69,2.69,0,0,0-.68-3.28A8,8,0,0,0,1850.41,149.58Z"/>
      <path d="M1830,77.79c.71-1.83-1.14-3.6-2.87-4.5l.74,1.49a2.21,2.21,0,1,0,2.13,3Z"/>
      <path d="M1828.92,67.28a2.35,2.35,0,0,0,3.33-2,2.52,2.52,0,0,0-3.47-2l.45.29A2.2,2.2,0,0,0,1828.92,67.28Z"/>
      <path d="M1851.85,25.79a9.09,9.09,0,0,0-3.09,4.38,4.62,4.62,0,0,0,1.69,5.11,4.09,4.09,0,0,0,5.23-1.2,5.09,5.09,0,0,0,0-5.57A6.61,6.61,0,0,0,1851.85,25.79Z"/>
      <path d="M1850.8,25.57a7.85,7.85,0,0,1,1,.22,2.32,2.32,0,0,1,.25-.21Z"/>
      <path d="M1863.28,14.69a4.36,4.36,0,0,0-4.21,5.42,4.68,4.68,0,0,0,6.58,2.45,5,5,0,0,0,1.35-7Z"/>
      <path d="M1880.32,16c0-1,0-2,0-3l.43-.48a2.05,2.05,0,0,0-3,1.41A2,2,0,0,0,1880.32,16Z"/>
      <path d="M1887.2,15.31l-.23.1a1.05,1.05,0,1,0,.23-.1Z"/>
      <path d="M1832.82,92.37a1.78,1.78,0,0,0-1.09-2.05,3.15,3.15,0,0,0-.9-1.09,7.1,7.1,0,0,0-.75,1.48,1.86,1.86,0,0,0-.43,1.57,7.88,7.88,0,0,0-.05,2,2.8,2.8,0,0,0,1.52-.79A1.74,1.74,0,0,0,1832.82,92.37Z"/>
      <path d="M1951.45,125.49l1.75,1.45-1.31-.07c-1.12,1.35.23,3.76,2,3.67a2.78,2.78,0,0,0,2.11-3.9A3.3,3.3,0,0,0,1951.45,125.49Z"/>
      <path d="M1944.83,119.86h-.63c-1,.33-.72,2.27.37,2.24S1945.89,120.13,1944.83,119.86Z"/>
      <path d="M1935.35,130.07l-.52-.44-.63,1.73a2.06,2.06,0,0,0,2.68-1.37A1.11,1.11,0,0,0,1935.35,130.07Z"/>
      <path d="M1916.05,154.62h0a1.26,1.26,0,1,0,1.13,1.87A1.33,1.33,0,0,0,1916.05,154.62Z"/>
      <path d="M1894.9,173.13l.38.65c-.77.24-.58,1.59.21,1.79a1.55,1.55,0,0,0,1.71-1.32,3.6,3.6,0,0,0-.53-2.31Z"/>
      <path d="M1972.93,93.07a1.69,1.69,0,0,0-.89-1.48l-.41,3.07A1.71,1.71,0,0,0,1972.93,93.07Z"/>
      <path d="M1971.67,91.44a1.31,1.31,0,0,1,.37.15l.11-.86Z"/>
      <path d="M1973.58,73.44l-.29-1.27h-.86a.85.85,0,1,0,1.15,1.26Z"/>
      <path d="M1963.25,60.77a1.37,1.37,0,0,0,2.22-.59,1.5,1.5,0,0,0-1.68-1.7l.42.31A1.25,1.25,0,0,0,1963.25,60.77Z"/>
      <path d="M1940.69,59.59a1.33,1.33,0,1,0,.38-2.51l-.8.43A1.39,1.39,0,0,0,1940.69,59.59Z"/>
      <path d="M1898.56,33.1l-.19-.62a2.05,2.05,0,0,0-2.18,2.19,1.85,1.85,0,0,0,2.7,1.28A1.68,1.68,0,0,0,1898.56,33.1Z"/>
      <path d="M1899.25,17.51l-1.33-.39a2,2,0,0,0,2.62,2.24A1.31,1.31,0,0,0,1899.25,17.51Z"/>
      <path d="M1840.37,106.57a1,1,0,0,0-.69,0l-.23-.73a1.51,1.51,0,0,0-.24,2.1l0,0a1.73,1.73,0,0,0-.07,1.77,1.87,1.87,0,1,0,1.18-3.22Z"/>
      <path d="M1829.27,88.65a2.79,2.79,0,0,1,1.56.58,7.9,7.9,0,0,1,.5-.68Z"/>
      <path d="M1832.09,32c1.4.26,2.63-1.25,2.64-2.68a7.56,7.56,0,0,0-1.57-3.93l1.39-2.05a7.83,7.83,0,0,0-4,4.41C1830,29.32,1830.4,31.65,1832.09,32Z"/>
      <path d="M1840.71,14l0,1a1.15,1.15,0,0,0,1.46-1.15,1.16,1.16,0,0,0-1.67-.81l.17.92Z"/>
      <path d="M1846.8,11.21l-.41-.45a2.06,2.06,0,0,0,2.43,3.14A2.36,2.36,0,0,0,1846.8,11.21Z"/>
    </g>
  </g>
  <g id="Layer_11" data-name="Layer 11">
    <g>
      <path d="M2171.71,20.7a11.07,11.07,0,0,0-.65-7.95,8.53,8.53,0,0,0-11.35-3.17c-2.56,1.49-6.76,8.91-1.36,7.37,2.35-.67,3.08-3.06,6.05-2.8a6.09,6.09,0,0,1,5.08,3.88l-1.16.44a4.58,4.58,0,0,1,1.26,5.68,4.57,4.57,0,0,1-5.46,2,4.65,4.65,0,0,0,5-.83A8.88,8.88,0,0,0,2171.71,20.7Z"/>
      <path d="M2163.89,18.22l-.66-.29c-1.09-.1-1.58,1.77-.58,2.21S2164.69,19,2163.89,18.22Z"/>
      <path d="M2158.93,24.87l-.06,0a1.18,1.18,0,0,0,1.15,1.73,1.06,1.06,0,0,0,.36-1.43A1.05,1.05,0,0,0,2158.93,24.87Z"/>
      <path d="M2176.73,136.56l1.15,1.37a4.38,4.38,0,0,0-1.48-2.22,1.61,1.61,0,0,0-.94-.69l.12.14a4.46,4.46,0,0,0-2.53-.5,2.7,2.7,0,0,0,0,3.43,2.28,2.28,0,0,0,3.3-.06A1.84,1.84,0,0,0,2176.73,136.56Z"/>
      <path d="M2180.14,147.89c-.72-1.26-2.19-1.86-3.56-2.37l2,2.26a1.91,1.91,0,0,0-1.43,1.82,1.72,1.72,0,0,0,1.6,1.61C2180.17,151.22,2180.86,149.16,2180.14,147.89Z"/>
      <path d="M2172.5,157.87a2.68,2.68,0,0,0-1.55,3.52l-.5,1.2c-.56-1-2.36-.3-2.39.84a2.2,2.2,0,0,0,2.35,2,5.39,5.39,0,0,0,3.06-1.4c1.31-1,2.62-2.5,2.33-4.15A2.67,2.67,0,0,0,2172.5,157.87Z"/>
      <path d="M2081.4,169.77l-.37-.28a1.61,1.61,0,0,0,0,.38,1.33,1.33,0,0,0-.71.4l-.39.74a1.64,1.64,0,0,0,1.74,1.85,1.54,1.54,0,0,0,1.09-.8,2.37,2.37,0,0,0,1,.15A2,2,0,0,0,2081.4,169.77Z"/>
      <path d="M2093.73,153.21l-1.85.06a1.53,1.53,0,1,0,2.87,1c.23-.94-.46-1.84-1.1-2.57Z"/>
      <path d="M2110,153.6a1.79,1.79,0,0,0,1.8,2.25A2,2,0,0,0,2110,153.6Z"/>
      <path d="M2110,153.6h0a2,2,0,0,1,.14-.3Z"/>
      <path d="M2146.46,43.05l.5,1.82-1.19-.47a1.52,1.52,0,0,0,2.72.53C2149.05,43.82,2147.52,42.4,2146.46,43.05Z"/>
      <path d="M2059.91,13.53l.88,1.5a2.63,2.63,0,0,0-2.61,3.11,2.63,2.63,0,0,0,3.76,1.52,3,3,0,0,0,1-3.63A4.53,4.53,0,0,0,2059.91,13.53Z"/>
      <path d="M2050.94,28.26l-.41-.75L2049,25.87c.09,1.06.17,2.12.26,3.18a5,5,0,0,0,1,3.12,2.64,2.64,0,0,0,4.29-1.27A2.64,2.64,0,0,0,2050.94,28.26Z"/>
      <path d="M2031.71,27.25l-.26-.54a2.37,2.37,0,0,0,1.54,3.15A1.83,1.83,0,0,0,2031.71,27.25Z"/>
      <path d="M2026.74,75.21l-.24-.25a1.31,1.31,0,0,0,.78,2A1.15,1.15,0,0,0,2026.74,75.21Z"/>
      <path d="M2034.55,153.51l.58.77a1.47,1.47,0,0,0-1.1-.2,1.54,1.54,0,0,0-1.09,1.78c.3,1.27,2,1.54,3.27,1.52A3.12,3.12,0,0,0,2034.55,153.51Z"/>
      <path d="M2068.56,164.91l-1-.77c-1.08,1.59.68,3.86,2.6,4s3.65-1,5.21-2.17l-.45-1Z"/>
      <path d="M2093.07,173.47l-.05,1.36.71.36,1-.05A1.46,1.46,0,0,0,2093.07,173.47Z"/>
      <path d="M2157.93,55.39l-.15-1.18c-.72.92-1.39,2.38-.6,3.14l.05.48.85,1.7a2.75,2.75,0,0,0,.26-1.93,1.14,1.14,0,0,0,.75-.73A1.21,1.21,0,0,0,2157.93,55.39Z"/>
      <path d="M2155.26,126a1.6,1.6,0,0,0-1.66,1.93l.32-.6.18,1,2.27-.05A1.61,1.61,0,0,0,2155.26,126Z"/>
      <path d="M2142.29,151.08l.68,1.34a2.43,2.43,0,0,0,1.36-3.07Z"/>
    </g>
  </g>
  <g id="Layer_12" data-name="Layer 12">
    <g>
      <path d="M2367.19,11.77a2.62,2.62,0,0,0-3.19-.27c-.44.29-5.46-1.81-6.71-1.67-1.49.16-4.33,1.14-5.22,2.5-3.07,4.69,3.2,4.82,5.93,2a14.8,14.8,0,0,0,9.58.67A2.65,2.65,0,0,0,2367.19,11.77Z"/>
      <path d="M2367.54,18.35l-.94.46a2.1,2.1,0,0,0,.83,2.53A2,2,0,0,0,2367.54,18.35Z"/>
      <path d="M2369.62,158.48l1.61,2.84a3.18,3.18,0,0,0-3.13,2.71,2.88,2.88,0,0,0,1.52-5.55Z"/>
      <path d="M2377.06,148.17a5,5,0,0,0-1.17-1.43l.24,2.12c-.58-.22-1.13.67-.75,1.16a1.05,1.05,0,0,0,1.6-.09A1.71,1.71,0,0,0,2377.06,148.17Z"/>
      <path d="M2371.33,135.76l0,0-.06-.12Z"/>
      <path d="M2371.31,135.61l-.08-.65A1,1,0,0,0,2371.31,135.61Z"/>
      <path d="M2371.37,135.73a1.19,1.19,0,0,0,1.26.58A.81.81,0,0,0,2371.37,135.73Z"/>
      <path d="M2269.66,164.94l.5.9a1.76,1.76,0,0,0-2.81,1.4,1.94,1.94,0,0,0,3.13,1A2.15,2.15,0,0,0,2269.66,164.94Z"/>
      <path d="M2280.82,170.11l-.93-.7a1.75,1.75,0,0,0,1,2.3A1.1,1.1,0,0,0,2280.82,170.11Z"/>
      <path d="M2249.27,29.93l-.35.75-.13-.76a1.75,1.75,0,1,0,1.43,3.2A3,3,0,0,0,2249.27,29.93Z"/>
      <path d="M2257.83,16.3l.08.13.06,1.67a1.08,1.08,0,0,0,1.43-1A1.08,1.08,0,0,0,2257.83,16.3Z"/>
    </g>
  </g>
  <g id="Layer_13" data-name="Layer 13">
    <g>
      <path d="M2552.79,9.48a1.69,1.69,0,0,0-2.5,1.1,1.7,1.7,0,0,0,2.08,1.77c1.42-.45,1.51-2.52.75-3.79Z"/>
      <path d="M2562,11.41l-1.83-2a4,4,0,0,0,.75,3.44,2.72,2.72,0,0,0,3.3.68,2.07,2.07,0,0,0,.5-3.12A1.67,1.67,0,0,0,2562,11.41Z"/>
      <path d="M2563.74,21.66l.55,0-.12-1.13Z"/>
      <path d="M2468.05,167.7l-.75-.16a1.28,1.28,0,1,0,.75.16Z"/>
      <path d="M2569.71,162.88l-.92.72c-.11.45-.21.91-.31,1.36h1.33C2569.78,164.27,2569.75,163.58,2569.71,162.88Z"/>
    </g>
  </g>
</svg>
