<?xml version="1.0" encoding="UTF-8"?>
<svg width="36px" height="36px" viewBox="0 0 36 36" version="1.1" xmlns="http://www.w3.org/2000/svg" xmlns:xlink="http://www.w3.org/1999/xlink">
    <!-- Generator: Sketch 48.2 (47327) - http://www.bohemiancoding.com/sketch -->
    <title>black/country-DE</title>
    <desc>Created with Sketch.</desc>
    <defs></defs>
    <g id="countries" stroke="none" stroke-width="1" fill="none" fill-rule="evenodd">
        <g id="black/country-DE" fill="#060C19" fill-rule="nonzero">
            <polygon id="DE" points="16.7288053 4.77956289 16.767799 6.24572607 18.9826413 7.11918498 18.9592451 8.44497083 21.181886 7.74308421 22.4062883 6.72144923 24.878489 8.19541114 25.9079227 9.37302093 26.4226395 11.2369199 25.8143378 12.2117624 26.6020106 13.4985546 27.1479224 15.4092459 26.9763501 16.6258494 27.8732052 18.8562891 26.8983627 19.2228299 26.3212559 18.8250942 25.7675453 19.4801884 24.1999985 20.15088 23.3889296 21.0087415 21.7979865 21.7496218 22.1801248 22.763458 22.414087 24.1828288 23.5293069 24.9938978 24.7615078 26.4210672 23.9972313 27.9418216 23.2095585 28.3629536 23.5215081 30.4842109 23.3109422 31.0301228 22.6324517 30.3672298 21.5874205 30.273645 20.0198737 30.8507517 18.0935849 30.7103744 17.7816353 31.5604371 16.6742141 30.6713807 16.0113212 30.842953 13.6716991 29.8603117 13.2193722 30.5621984 11.363272 30.5388021 11.6362279 28.2147775 12.743649 25.9531428 9.59295795 25.3448411 8.56352423 24.4635834 8.68830407 22.9896215 8.25157461 22.225345 8.5011343 19.9091191 8.12679477 16.2515099 9.44478188 16.2515099 9.99849244 14.9179253 10.5444043 11.6190581 10.131071 10.3868572 10.5600017 9.60698314 12.384907 9.40421589 12.7904415 10.2152849 14.2800009 8.39817839 13.7808815 7.00220388 13.6794979 4.85755029 15.3328308 5.35666967"></polygon>
        </g>
    </g>
</svg>