<?xml version="1.0" encoding="UTF-8"?>
<svg width="36px" height="36px" viewBox="0 0 36 36" version="1.1" xmlns="http://www.w3.org/2000/svg" xmlns:xlink="http://www.w3.org/1999/xlink">
    <!-- Generator: Sketch 48.2 (47327) - http://www.bohemiancoding.com/sketch -->
    <title>black/country-US</title>
    <desc>Created with Sketch.</desc>
    <defs></defs>
    <g id="countries" stroke="none" stroke-width="1" fill="none" fill-rule="evenodd">
        <g id="black/country-US" fill="#060C19">
            <polygon id="US" fill-rule="nonzero" points="32.8576778 10.1403315 32.623856 9.91773323 32.2721881 10.0486734 32.0982247 9.84665141 31.6979219 10.4265294 31.5370525 11.0157602 31.3499951 11.3562047 31.1273968 11.4721803 30.9590451 11.5095918 30.906669 11.6929081 29.9395822 11.6929081 29.1427176 11.6985198 28.9051547 11.8350717 28.3682999 12.3457384 28.4225466 12.4467494 28.4543463 12.7292061 28.0615258 12.966769 27.6312937 12.9069107 27.2197674 12.8807226 26.9709811 12.9630279 27.0177454 13.1781439 27.0177454 13.1781439 27.0270983 13.2473552 26.5744194 13.6719755 26.1797282 13.8758681 25.9103655 13.9712673 25.5998502 14.1639365 25.2201237 14.2574652 24.9582433 14.2219243 24.634634 14.0778901 24.8142091 13.8066568 24.9301847 13.559741 25.1771005 13.168791 25.1509125 12.8751109 25.0573837 12.4561023 24.862844 12.3831499 24.5373641 12.7011475 24.432612 12.6955358 24.406424 12.5140901 24.6944924 12.2222805 24.7431273 11.8874478 24.7001041 11.552615 24.3110247 11.262676 23.865828 11.1130301 23.7928756 11.3973574 23.6769001 11.4721803 23.5833713 11.8369423 23.5347364 11.5881559 23.3252321 11.7658605 23.1942919 12.0127762 23.05774 12.3719265 23.031552 12.6787006 23.2055154 13.1238973 23.1905508 13.5934114 22.9773053 13.937597 22.8706826 14.0348669 22.728519 14.1115604 22.5508144 14.1153015 22.5021795 14.0685372 22.3600159 13.6981635 22.3562747 13.5148473 22.3712393 13.3390133 22.3057692 12.9892159 22.4049097 12.5814308 22.5227558 12.0745052 22.7958596 11.5077212 22.7172955 11.5095918 22.3319573 11.9847176 22.2608754 11.8986712 22.4666386 11.6330497 22.7790245 11.1523121 23.1363041 11.0849715 23.5459599 10.9353255 23.9593567 11.0138897 23.9761919 11.0176308 24.4382237 10.9502901 24.1763433 10.6491277 24.0360503 10.6248102 23.8751809 10.5948811 23.764817 10.3816356 23.2504092 10.4489763 22.7846362 10.6173279 22.4161331 10.327389 22.1187118 10.2301191 22.2870635 9.82420452 21.8231611 10.0804732 21.4022819 10.3292595 20.9982379 10.5237992 20.6764992 10.2619189 20.1508678 10.4209177 20.1527384 10.3086832 20.5081475 9.9850739 20.8803917 9.67642917 21.4153759 9.42016052 20.7700279 9.21626794 20.3454076 9.31914951 19.8366114 9.07597488 19.3016272 8.95064641 18.9349947 8.90201149 18.7722547 8.76733015 18.678726 8.32774523 18.5010215 8.33148638 18.4991509 8.63826053 17.4142179 8.63826053 15.6203373 8.63826053 13.8376802 8.63826053 12.2626568 8.63826053 10.689504 8.63826053 9.14253917 8.63826053 7.54319831 8.63826053 7.02691985 8.63826053 5.47060219 8.63826053 3.98162519 8.63826053 4.15932973 9.28734975 4.24350557 9.92521553 4.11443595 10.1291081 3.83572041 9.39771363 3.07813789 9.1320921 3.01453837 9.28547918 3.16792545 9.64837056 3.33440655 10.3086832 3.42980582 11.3225344 3.36620631 11.9940705 3.30260679 12.6562537 3.09684363 13.331531 3.2651953 13.8739975 3.28390104 14.4725812 3.16979602 15.0431063 3.44851157 15.4153506 3.52146396 15.9671699 3.92737854 16.5264716 4.15932973 16.7453288 4.14062399 16.8987158 4.57833833 17.8059443 5.08713449 18.4512923 5.15073401 18.8010897 5.28354477 18.9039713 5.76989404 18.9657002 5.95695146 19.1359225 6.25063159 19.1677222 6.30861939 19.3472973 6.5536646 19.4221203 6.89410909 19.7812705 6.98202607 20.0992681 7.57873921 20.0525038 8.2446636 19.9851631 8.19602867 20.1067504 8.98728152 20.4060423 10.184449 20.8381449 11.2282293 20.8344038 11.6434968 20.8344038 11.6453673 20.5818763 12.5544664 20.5818763 12.7452649 20.7988629 13.012757 20.991532 13.3251429 21.2590241 13.4991063 21.5751511 13.6300465 21.9062427 13.9012797 22.0876884 14.3371235 22.2672635 14.6682151 21.7940083 15.0965766 21.7827848 15.4669503 22.0222183 15.7307012 22.4300035 15.9121469 22.7779303 16.2207916 23.1146336 16.3367672 23.5242893 16.4845426 23.7992637 16.8941983 23.9788389 17.2664426 24.1060379 17.4703351 24.0892027 17.3711947 23.8909219 17.3450067 23.6103358 17.3506184 23.2062917 17.4722057 22.9406702 17.7584036 22.6582135 18.2802937 22.4019449 18.7572901 21.9586188 19.1987456 21.8183258 19.5242255 21.7753025 19.9058226 21.913725 20.3641133 21.8389021 20.7550633 22.1550291 21.1347898 22.1737348 21.3312001 22.0596298 21.5257398 22.1475468 21.6248802 22.0689827 21.5126458 21.9511365 21.5219987 21.7079619 21.42847 21.5470925 21.6454566 21.4535638 22.0457594 21.4124112 22.5115324 21.4797518 23.1045044 21.4030583 23.4337254 21.5527042 23.6881235 21.8332903 23.7816522 21.8632195 24.3110247 21.5901157 24.5149173 21.6817738 24.924573 22.1830877 25.0723483 22.5104382 24.963855 22.9032587 25.0424192 23.1333394 25.2855938 23.5822771 25.5643093 24.083591 25.7644608 24.2164018 25.846766 24.4689293 26.1049053 24.5381405 26.2620335 24.4651881 26.3929737 24.1116496 26.4154206 23.8853102 26.4322557 23.4924896 26.1834694 22.80973 26.1797282 22.5534614 25.9459065 22.1325822 25.7700725 21.6181743 25.6765438 21.1972951 25.7569785 20.7651925 26.0038943 20.4023011 26.299445 20.108621 26.8755818 19.704577 26.9504048 19.4950727 27.2160263 19.2649921 27.4779067 19.2238395 27.8220923 18.8534658 28.3645588 18.6645378 28.697521 18.1912825 28.6245686 17.5440639 28.5703219 17.3177244 28.420676 17.2728307 28.3982291 16.6461883 28.0372083 16.4329429 28.3832645 16.537695 28.2710301 16.1149453 28.3720411 15.8250063 28.43377 16.3805668 28.7012621 16.6349649 28.5385222 17.0839027 28.5871571 17.1100907 28.8827078 16.5844594 29.0510595 16.3263201 29.0435772 16.0737926 28.912637 15.9540759 28.8041437 15.5911845 28.9762365 15.7595362 29.0922121 15.7950771 29.1314942 15.9671699 29.5130913 15.4471503 29.6271963 14.9570599 29.4719387 14.9252601 29.6309375 14.7344616 29.6159729 14.8186374 29.9508056 14.8167668 30.6859413 14.6091331 30.5306836 14.4781929 29.7600071 14.6091331 30.1977214 14.4089817 30.502625 14.3753113 30.730835 14.3397704 31.1180439 14.2181831 31.3705714 14.2312771 31.7241099 14.1171721 31.7652625 13.9170207 31.6081343 13.7598925 31.662381 14.0161611 31.4453944 13.9993259 31.271431 13.6270817 31.2770427 13.2510963 31.3668302 13.0902269 31.6436752 12.663736 32.1973651 12.44862 32.7360905 12.1979631 33.2953922 11.842554 33.2056046 11.6012499 32.8632895 11.1803708"></polygon>
            <polygon id="US-path" points="12.7691054 30.8731579 12.7691054 30.8731579 12.632782 30.7111632 12.4141334 30.5721841 12.3442012 30.1862295 12.0246379 29.8206348 11.8909701 29.3833376 11.6528467 29.3532402 11.2580399 29.3417324 10.9668035 29.2054089 10.4533776 28.7061465 10.2161394 28.6131987 9.78238302 28.4370405 9.43891879 28.4795309 8.95116418 28.2502597 8.65638689 28.035152 8.38108438 28.1422632 8.43242697 28.4901535 8.29521832 28.5220214 8.00840799 28.6247065 7.78975937 28.7893569 7.51445686 28.8920421 7.47904817 28.6052318 7.59058552 28.1157067 7.85438021 27.9590233 7.7862185 27.8297816 7.470196 28.1148215 7.30111954 28.4485483 6.94349184 28.7982091 7.12496134 29.0327916 6.89037881 29.3736002 6.62392847 29.5692332 6.37518247 29.7099827 6.31410249 29.9126974 5.92637741 30.1455095 5.84759309 30.3544207 5.55724189 30.5429719 5.38728021 30.5093337 5.15535333 30.6314937 4.90306647 30.7793249 4.69681089 30.9236153 4.27102147 31.0457752 4.23207192 30.9740727 4.50383356 30.7731284 4.74638304 30.6394606 5.01106295 30.3995668 5.31911849 30.3499946 5.44127845 30.1676399 5.7856279 29.8976487 5.84139657 29.8064713 6.02463651 29.6444766 6.06712693 29.2903898 6.19371297 29.009776 5.90778785 29.1549516 5.82811832 29.0726264 5.69356532 29.2452437 5.53157059 29.0035794 5.4642941 29.1753116 5.3713463 28.9363029 5.12348552 29.1283951 4.97122818 29.1283951 4.94998297 28.8424699 4.99512904 28.6636561 4.83490475 28.4883831 4.51180052 28.5831013 4.30200407 28.3502892 4.13204239 28.2298997 4.13115717 27.9422042 3.93995028 27.7226703 4.03555373 27.4208113 4.23826844 27.1224931 4.32679015 26.8436498 4.52773442 26.803815 4.6976961 26.8914515 4.89775516 26.6250011 5.07833945 26.6728029 5.2677759 26.4993003 5.22174462 26.2408169 5.08276553 26.1381318 5.26689069 25.915057 5.11463335 25.9212536 4.85083866 26.0478396 4.77559521 26.1744257 4.57996223 26.0478396 4.22853105 26.1124605 3.86470683 25.9743666 3.76025122 25.7397841 3.44599915 25.3936642 3.79477468 25.1396069 4.34803536 24.8377479 4.5525205 24.8377479 4.51888225 25.1458034 5.04293077 25.1219025 4.84110127 24.7377183 4.53570138 24.4969393 4.35954318 24.1747203 4.12141978 23.8941065 3.78061121 23.6834248 3.91959029 23.3266823 4.35954318 23.3045519 4.67291003 22.9876442 4.73221957 22.6406391 4.98539166 22.2945192 5.22705592 22.2104236 5.69710619 21.8775819 5.9254922 21.9280393 6.30702076 21.5199542 6.6823528 21.681949 6.86205187 22.024528 6.972704 21.8784672 7.3922969 21.9236132 7.37724821 22.0962306 7.75700634 22.2228166 8.01017842 22.1484584 8.53334172 22.3821557 9.01047372 22.4512026 9.20168061 22.5459208 9.53186658 22.4273017 9.90808384 22.6450652 10.1780751 22.7450947 10.1763046 25.1927199 10.1754194 28.329044 10.4197393 28.3440927 10.6614036 28.4821866 10.8349061 28.6981796 11.0553252 29.0168577 11.2969894 28.7468665 11.5457354 28.5884126 11.6776328 28.8406995 11.8449388 29.0381029 12.0724396 29.2523254 12.2273526 29.5878227 12.4814099 30.1083304 12.9036584 30.3915998 12.9107402 30.6677876"></polygon>
        </g>
    </g>
</svg>