<?xml version="1.0" standalone="no"?>
<!DOCTYPE svg PUBLIC "-//W3C//DTD SVG 20010904//EN"
 "http://www.w3.org/TR/2001/REC-SVG-20010904/DTD/svg10.dtd">
<svg version="1.0" xmlns="http://www.w3.org/2000/svg"
 width="700.000000pt" height="700.000000pt" viewBox="0 0 700.000000 700.000000"
 preserveAspectRatio="xMidYMid meet">
<metadata>
Created by potrace 1.11, written by Peter Selinger 2001-2013
</metadata>
<g transform="translate(0.000000,700.000000) scale(0.100000,-0.100000)"
fill="#000000" stroke="none">
<path d="M3210 5529 c-68 -10 -131 -21 -139 -24 -8 -3 -30 -8 -50 -11 -124
-19 -460 -163 -620 -264 -178 -113 -346 -263 -488 -435 -56 -67 -163 -219
-163 -230 0 -4 -9 -20 -20 -35 -76 -107 -188 -394 -237 -604 -38 -167 -51
-487 -28 -671 15 -116 22 -161 31 -184 2 -8 7 -30 10 -50 3 -20 24 -90 46
-156 109 -326 288 -612 522 -834 32 -31 68 -65 80 -76 40 -39 187 -147 269
-197 159 -100 470 -231 592 -251 17 -3 64 -12 105 -21 116 -24 142 -26 340
-31 169 -4 303 6 424 30 503 101 947 377 1250 780 25 33 49 65 54 70 28 34
125 207 168 300 130 279 184 514 189 830 3 199 -6 299 -44 479 -80 375 -300
766 -580 1030 -30 28 -63 60 -75 71 -12 11 -46 39 -76 62 -30 24 -61 48 -68
54 -34 29 -196 126 -287 171 -87 44 -280 123 -325 133 -8 2 -51 12 -95 23
-254 63 -534 78 -785 41z"/>
</g>
</svg>
