<?xml version="1.0" standalone="no"?>
<!DOCTYPE svg PUBLIC "-//W3C//DTD SVG 20010904//EN"
 "http://www.w3.org/TR/2001/REC-SVG-20010904/DTD/svg10.dtd">
<svg version="1.0" xmlns="http://www.w3.org/2000/svg"
 width="700.000000pt" height="700.000000pt" viewBox="0 0 700.000000 700.000000"
 preserveAspectRatio="xMidYMid meet">
<metadata>
Created by potrace 1.11, written by Peter Selinger 2001-2013
</metadata>
<g transform="translate(0.000000,700.000000) scale(0.100000,-0.100000)"
fill="#000000" stroke="none">
<path d="M3217 6423 c-1 0 -45 -4 -97 -7 -221 -12 -559 -81 -740 -151 -187
-72 -238 -93 -320 -133 -157 -77 -372 -207 -472 -286 -14 -12 -41 -32 -59 -46
-52 -39 -178 -151 -249 -221 -175 -173 -331 -372 -453 -577 -76 -128 -197
-370 -197 -395 0 -7 -4 -17 -9 -22 -5 -6 -27 -64 -49 -130 -85 -252 -125 -439
-149 -690 -14 -149 -8 -549 11 -640 2 -11 7 -42 10 -70 4 -27 9 -57 11 -65 2
-8 6 -32 9 -52 9 -59 72 -294 104 -389 94 -273 240 -550 417 -789 128 -173
289 -347 439 -475 33 -27 64 -55 70 -60 48 -44 285 -208 381 -263 167 -95 476
-228 625 -268 151 -42 297 -74 405 -89 22 -4 51 -8 65 -10 153 -26 922 -26
1056 -1 11 2 42 7 69 10 28 4 57 9 65 11 8 3 31 7 50 9 20 3 83 17 140 31 58
15 112 28 120 30 23 5 187 60 265 90 127 48 420 198 492 251 17 13 34 24 38
24 3 0 11 5 18 10 7 6 46 34 88 64 42 29 86 62 99 72 203 164 379 343 515 524
89 118 113 153 213 316 41 65 160 316 200 419 62 163 126 401 151 560 6 39 13
86 16 105 14 93 19 202 19 390 0 199 -3 241 -25 402 -8 67 -16 110 -46 258
-29 144 -146 467 -226 625 -78 154 -216 378 -293 475 -299 374 -595 623 -989
830 -195 103 -514 219 -700 255 -16 3 -41 8 -55 11 -14 2 -47 9 -75 14 -27 5
-68 12 -90 15 -22 3 -56 7 -75 10 -96 13 -231 18 -498 19 -162 1 -294 0 -295
-1z"/>
</g>
</svg>
