<?xml version="1.0" standalone="no"?>
<!DOCTYPE svg PUBLIC "-//W3C//DTD SVG 20010904//EN"
 "http://www.w3.org/TR/2001/REC-SVG-20010904/DTD/svg10.dtd">
<svg version="1.0" xmlns="http://www.w3.org/2000/svg"
 width="700.000000pt" height="700.000000pt" viewBox="0 0 700.000000 700.000000"
 preserveAspectRatio="xMidYMid meet">
<metadata>
Created by potrace 1.11, written by Peter Selinger 2001-2013
</metadata>
<g transform="translate(0.000000,700.000000) scale(0.100000,-0.100000)"
fill="#000000" stroke="none">
<path d="M3397 5874 c-1 -1 -42 -4 -92 -8 -49 -3 -101 -8 -115 -11 -14 -2 -54
-9 -90 -15 -97 -17 -100 -17 -170 -34 -166 -39 -406 -132 -552 -213 -114 -63
-115 -63 -202 -122 -488 -329 -839 -828 -980 -1396 -26 -105 -31 -130 -46
-235 -28 -190 -31 -535 -5 -654 2 -12 7 -38 10 -59 33 -236 130 -524 254 -752
335 -619 926 -1060 1606 -1200 44 -9 98 -18 120 -21 22 -3 46 -7 53 -9 21 -7
220 -18 327 -19 90 0 227 9 295 19 14 2 47 6 75 10 74 9 338 79 435 114 186
69 516 251 631 349 13 11 44 37 69 57 269 220 535 577 659 882 18 43 36 87 41
98 29 63 98 307 113 400 3 17 8 44 11 60 37 199 39 519 5 735 -6 36 -13 79
-16 95 -13 86 -84 334 -113 400 -5 11 -23 54 -40 95 -145 351 -427 713 -728
938 -42 31 -79 59 -82 62 -19 19 -174 113 -265 161 -232 122 -480 204 -735
245 -71 11 -91 14 -155 20 -62 6 -313 12 -318 8z"/>
</g>
</svg>
