<?xml version="1.0" encoding="utf-8"?>
<!-- Generator: Adobe Illustrator 19.2.0, SVG Export Plug-In . SVG Version: 6.00 Build 0)  -->
<svg version="1.1" xmlns="http://www.w3.org/2000/svg" xmlns:xlink="http://www.w3.org/1999/xlink" x="0px" y="0px"
	 viewBox="0 0 260 800" style="enable-background:new 0 0 260 800;" xml:space="preserve">
<style type="text/css">
	.st1{fill:none;stroke:#000000;stroke-width:0.5;stroke-miterlimit:10;}
</style>
<g id="Layer_1">
	<g>
		<g>
			<path class="st1" d="M0.3,0C0.3,0,0.3,0,0.3,0c0,266.7-0.2,533.3,0,800c-0.1,0,0,0,0,0c8-71.2,51.7-144.5,108-188.3
				c17.6-13.7,36-21,55.6-31.1c7.4-3.8,17-8.6,22.3-15.4c7.8-10,6.5-19.2,0.4-29.6c-12.6-21.5-59.7-39.3-29.4-63.3
				c25.2-20,95.6-33.4,98.6-72.4c2.8-37.8-65.4-67.1-88.6-87c-13.8-11.8-20.1-20.3-18-37.8c1-8.1,4.5-11.7,2-20.5
				c-3.2-11.4-14.5-21.5-22.6-29.5c-35.3-34.8-86.4-57.9-105-106.2C9,80.8,1.4,40.8,0.3,0z"/>
			<path class="st1" d="M0.3,0C-0.1,133,1,266.3,5.2,399.3c4.3,133.6-7.2,266.9-5,400.7"/>
			<path class="st1" d="M0.3,0c-0.4,69.6,1,138.2,4.9,207.5c3.5,63.7,1.3,127.5,5,191.2c2.7,45.6,5.3,92.1-0.4,137.5
				C-1,623.7-2,711.9,0.3,800"/>
			<path class="st1" d="M0.3,0C0,40.8,0.6,81.6,0.5,122.4c-0.1,28.4,5.2,56.4,7.7,84.7c5.6,63.4,1.8,127.6,7,191.3
				c3.8,45.6,7,92.7-0.4,138.1C0.6,623.6-2.5,711.6,0.3,800"/>
			<path class="st1" d="M0.3,0c-0.4,40.9,0.3,81.9,0.3,122.8c0,28.3,7.4,55.8,10.9,83.8c8,63.1,2.3,127.7,8.8,191.3
				c4.7,45.5,8.2,93.3-0.5,138.5C3.1,623.6-2.5,711,0.3,800"/>
			<path class="st1" d="M0.3,0c-0.5,41.1,0.4,82.2,0.5,123.3c0.1,28.2,9.7,55.3,14.3,83.1c5.7,34,2.9,67.7,3.8,102
				c0.7,29.9,3.2,59.7,6.7,89.3c5.5,45.4,9,93.8-0.6,138.9c-5.7,26.8-13.1,52.4-16.3,79.8C1.6,677-1.5,738.9,0.3,800"/>
			<path class="st1" d="M0.3,0c-0.5,41.2,0.4,82.4,0.8,123.7C1.3,151.9,13.2,178.5,19,206c7.1,34.1,3.9,67.4,4.7,101.9
				c0.7,29.9,3.3,59.8,7.4,89.4c6.2,45.3,9.5,94.2-0.7,139.2c-6.1,26.9-14.6,52.6-18.6,80.1C2.9,677-1.2,739,0.3,800"/>
			<path class="st1" d="M0.3,0c-0.5,41.4,0.3,82.7,1.1,124.1C2,152.5,16.1,178.5,23,205.8c8.6,34.2,4.9,67.2,5.6,101.9
				c0.6,30,3.4,59.9,8,89.5c6.9,45.1,9.8,94.6-0.9,139.4c-6.4,27.1-15.9,52.9-20.7,80.5C4.4,677.1-0.7,739.1,0.3,800"/>
			<path class="st1" d="M0.3,0c-0.5,41.5,0.3,83,1.5,124.5C2.6,153,19,178.5,27.1,205.6c10.2,34.3,6,66.9,6.6,101.9
				c0.5,30,3.5,60,8.5,89.6c7.5,45,9.8,94.9-1.1,139.5c-6.7,27.3-17.1,53.2-22.7,80.8C6,677.1-0.2,739.1,0.3,800"/>
			<path class="st1" d="M0.3,0c-0.5,41.6,0.4,83.3,1.9,124.9c1.1,28.8,19.7,53.8,28.9,80.7c11.8,34.4,7.1,66.5,7.5,101.9
				c0.4,30.1,3.7,60,9,89.6c8,44.7,9.7,95.1-1.4,139.6c-6.9,27.5-18.2,53.5-24.7,81.2C7.8,677.1,0.3,739.2,0.3,800"/>
			<path class="st1" d="M0.3,0c-0.4,41.7,0.5,83.6,2.5,125.2c1.4,29.1,22.2,53.6,32.6,80.3c13.4,34.6,8.1,66.2,8.5,102
				c0.3,30.2,3.8,60.1,9.5,89.7c8.5,44.5,9.5,95.4-1.9,139.6c-7.1,27.7-19.4,53.8-26.6,81.5C9.6,677.1,0.9,739.2,0.3,800"/>
			<path class="st1" d="M0.3,0c-0.3,41.8,0.6,83.9,3.1,125.6C5.1,155,28,178.9,39.5,205.5c15,34.6,9.2,65.9,9.5,102.1
				c0.2,30.2,4,60.2,10.1,89.8c9,44.2,9.2,95.6-2.4,139.5c-7.4,27.9-20.6,54-28.5,81.8C11.4,677.1,1.5,739.2,0.3,800"/>
			<path class="st1" d="M0.3,0C0.1,41.9,1.1,84.1,4.1,125.9c2.1,29.8,27,53.3,39.5,79.6c16.5,34.7,10.2,65.7,10.4,102.3
				c0.2,30.3,4.3,60.3,10.8,89.8c9.5,43.8,8.8,95.8-3,139.3C54.1,565,39.9,591.2,31.3,619C13.1,677.1,2,739.2,0.3,800"/>
			<path class="st1" d="M0.3,0c-0.1,41.9,1,84.4,4.5,126.2c2.5,30.2,29.2,53.2,42.8,79.4c18,34.7,11.1,65.5,11.4,102.4
				c0.2,30.4,4.7,60.3,11.5,89.9c10,43.4,8.4,96-3.8,139c-8,28.3-23.1,54.5-32.5,82.4C14.8,677.1,2.5,739.1,0.3,800"/>
			<path class="st1" d="M0.3,0c0.1,42,1.4,84.6,5.4,126.5c2.9,30.7,31.3,53.2,45.9,79.3c19.4,34.7,11.9,65.4,12.3,102.7
				c0.3,30.5,5.2,60.4,12.5,90c10.5,43,8,96.2-4.7,138.7C63.1,565.6,47,591.8,37,619.8C16.4,677.2,2.8,739.1,0.3,800"/>
			<path class="st1" d="M0.3,0c0.3,42.1,1.8,84.9,6.3,126.7C10,158,39.8,179.9,55.3,206c20.6,34.6,12.7,65.3,13.2,102.9
				c0.5,30.7,5.9,60.4,13.5,90c6.1,23.4,7.6,43.4,4.6,67.3c-2.9,23.4-3.2,48.4-10.4,71c-9.1,28.7-26.2,54.8-36.9,82.9
				C17.9,677.2,3.1,739,0.3,800"/>
			<path class="st1" d="M0.3,0c0.5,42.2,2.2,85.1,7.3,127c3.8,31.8,35,53.2,51.4,79.2c21.8,34.6,13.3,65.3,14.1,103.2
				c0.7,30.8,6.7,60.5,14.8,90.1c6.4,23.4,7.7,43.1,4.4,66.9c-3.3,23.4-3.7,48.4-11.3,70.9c-9.9,28.9-28,54.8-39.2,83.2
				C19.3,677.3,3.3,738.9,0.3,800"/>
			<path class="st1" d="M0.3,0c0.6,42.1,2.4,85.1,8,126.8c4.4,32.5,36.4,53.6,53.6,80c22.6,34.6,12.9,65,14.4,103
				c1.2,30.7,8.1,60.8,16.4,90.2c6.6,23.7,7.4,42.7,4.1,66.8c-3.2,23.3-2.4,48-10.1,70.5c-10,29.2-30.3,54.6-42.3,83
				C20.6,676.8,3.5,738.7,0.3,800"/>
			<path class="st1" d="M0.3,0c0.5,41.9,2.3,84.9,8.5,126.4c5,33.3,37.8,54.4,55.7,81.3C87.6,242.5,76.3,272,79,310.1
				c2.2,30.5,10.4,61,18.6,90.3c6.7,24.3,6.2,42.3,3.1,66.9c-3,23.3-0.1,47.3-7.4,70c-9.5,29.7-32.8,54.4-45.7,82.6
				c-25.7,56-44,118.4-47.2,180.1"/>
			<path class="st1" d="M0.3,0c0.5,41.8,2.2,84.7,9.1,126c5.7,34.1,39.2,55.2,57.8,82.6C79.6,227,86,245.2,83.4,267.4
				c-1.7,14.6-3.1,28.1-1.5,42.9c3.2,30.4,13.1,60.9,21.1,90.3c6.8,25,4.6,42.1,1.3,67.1c-3.1,23.2,1.9,46.7-4.9,69.5
				c-9,30.2-35.1,54.2-49,82.2C23,675,3.6,738,0.3,800"/>
			<path class="st1" d="M0.3,0c0.4,41.6,2.2,84.6,9.6,125.6c6.3,34.9,40.6,56,59.9,84c12.6,18.2,19.1,36.2,16.3,58.3
				c-1.9,14.7-3.1,27.8-0.9,42.6c4.4,30.5,16.1,60.5,23.9,90.3c6.8,25.7,2.6,41.9-1.1,67.3c-3.4,23,3.6,46.1-2.7,69.1
				C96.9,568,68,591.3,53.3,619C24.1,674,3.7,737.6,0.3,800"/>
			<path class="st1" d="M0.3,0c0.4,41.5,2.3,84.4,10.1,125.2c6.9,35.6,42,56.9,62.1,85.3c12.8,18.1,19.3,35.7,16.3,57.9
				c-2,14.8-3,27.5-0.2,42.4c5.8,30.6,19.3,59.9,27,90.2c6.8,26.6,0.2,41.8-4.2,67.5c-3.9,22.8,4.9,45.6-0.7,68.7
				c-7.7,31.3-39.4,54.1-54.9,81.4C25.1,673.1,3.7,737.3,0.3,800"/>
			<path class="st1" d="M0.3,0C0.6,41.3,2.6,84.2,11,124.8c7.5,36.4,43.5,57.7,64.3,86.6c13,18,19.6,35.3,16.4,57.4
				c-2.2,14.9-2.8,27.3,0.7,42.1c7.2,30.8,22.8,59.1,30.3,90c6.7,27.5-2.4,41.7-7.6,67.7c-4.6,22.5,6.1,45.2,1.1,68.3
				c-6.9,31.9-41.4,54.1-57.6,81C26.1,672.1,3.7,736.9,0.3,800"/>
			<path class="st1" d="M0.3,0c0.3,41.2,2.4,84.1,11.3,124.5c8.2,37.2,44.9,58.5,66.6,87.9c13.2,17.9,19.8,34.9,16.5,57
				c-2.3,15-2.5,27,1.6,41.9c8.7,31,26.4,58.1,33.7,89.8c6.6,28.5-5.2,41.7-11.5,67.9c-5.4,22.3,7,44.9,2.7,67.9
				c-6.1,32.5-43.2,54.2-60,80.7C27.2,671.1,3.6,736.6,0.3,800"/>
			<path class="st1" d="M0.3,0c0.3,41.1,2.5,83.9,11.9,124.1C21,162,58.6,183.5,81,213.3c13.4,17.9,20.1,34.4,16.6,56.6
				c-2.4,15-2.3,26.9,2.6,41.6c10.5,31.1,30.2,57.1,37.3,89.6c6.4,29.5-8.3,41.8-15.8,68.2c-6.3,22,7.7,44.7,4.2,67.6
				c-1.6,10.1-6.4,18.5-12.9,26.3c-15.9,19.1-35.4,33-49.5,54.1c-35.4,53-60,119-63.2,182.8"/>
			<path class="st1" d="M0.3,0C0.6,41,3,83.8,12.8,123.8c9.5,38.7,47.9,60.2,71.1,90.5c13.6,17.8,20.4,34,16.8,56.2
				c-2.5,15.1-2,26.7,3.7,41.3c12.1,31,34.2,56,40.9,89.3c6.1,30.3-11.4,42.1-20.3,68.4c-7.4,21.8,8.4,44.5,5.6,67.2
				c-1.3,10.3-6.1,18.7-12.7,26.5c-16.4,19.2-37,32.4-51.8,53.6C29.2,669.2,3.6,735.8,0.3,800"/>
			<path class="st1" d="M0.3,0c0.3,40.9,2.8,83.6,13.1,123.4c10.1,39.4,49.3,61,73.4,91.7c13.9,17.7,20.7,33.6,17,55.8
				c-2.5,15.2-1.5,26.6,4.8,41c13.7,30.8,38.2,55,44.5,89.1c5.8,31.2-14.8,42.5-25.1,68.7c-8.5,21.6,8.9,44.2,6.9,66.9
				c-0.9,10.4-5.7,18.8-12.5,26.7c-16.8,19.3-38.5,31.9-54,53C30.3,668.2,3.6,735.5,0.3,800"/>
			<path class="st1" d="M0.3,0c0.3,40.8,3,83.5,13.7,123.1c10.8,40.1,50.8,61.8,75.6,92.9c14.1,17.6,20.9,33.2,17.2,55.4
				c-2.6,15.2-1.2,26.7,6,40.7c15.4,30.2,42.4,54.2,48.2,88.8c5.4,32.1-18.4,43-30,69c-9.7,21.6,9.4,44,8.2,66.6
				c-0.5,10.6-5.2,19-12.1,26.9c-17.2,19.4-39.9,31.5-56.2,52.5C31.3,667.2,3.6,735.1,0.3,800"/>
			<path class="st1" d="M0.3,0c0.3,40.7,3.3,83.3,14.3,122.7c11.4,40.8,52.3,62.6,77.9,94.1c14.3,17.6,21.2,32.8,17.4,55.1
				c-2.6,15.3-0.7,26.6,7.1,40.4c16.8,29.6,46.5,53.4,51.8,88.5c5,32.8-22.1,43.6-35.1,69.2c-10.9,21.7,9.8,43.6,9.5,66.3
				c-0.1,10.7-4.7,19.2-11.7,27.1c-17.5,19.6-41.3,31-58.2,52C32.4,666.3,3.7,734.7,0.3,800"/>
			<path class="st1" d="M0.3,0c0.3,40.7,3.5,83.2,15,122.4c12.1,41.5,53.7,63.4,80.1,95.2c14.5,17.5,21.5,32.4,17.6,54.7
				c-2.7,15.4-0.2,26.6,8.2,40.1c17.9,28.9,50.7,52.7,55.4,88.3c4.5,33.5-26,44.3-40.2,69.5c-12.3,21.8,10.2,43.3,10.8,66
				c0.3,10.8-4.1,19.4-11.3,27.3c-17.9,19.7-42.6,30.6-60.2,51.6C33.6,665.3,3.8,734.3,0.3,800"/>
			<path class="st1" d="M0.3,0c0.3,40.6,3.8,83,15.6,122.1c12.7,42.1,55.1,64.1,82.4,96.3c14.7,17.4,21.8,32,17.9,54.3
				c-2.8,15.5,0.4,26.6,9.4,39.8c18.9,28,54.8,52.1,58.9,88c3.9,34.2-30,45.1-45.4,69.8c-13.7,22,10.6,42.9,12,65.8
				c0.7,10.9-3.4,19.5-10.7,27.5c-18.2,19.9-43.9,30.3-62,51.1C34.8,664.4,3.9,733.9,0.3,800"/>
			<path class="st1" d="M0.3,0c0.4,40.7,4.3,82.7,16.3,121.8c13.2,42.8,56.6,64.9,84.6,97.4c14.9,17.3,22.1,31.6,18.1,53.9
				c-2.8,15.7,1,26.6,10.4,39.6c19.8,27.2,58.8,51.6,62.3,87.8c3.3,34.8-34.1,45.8-50.7,70.1c-15.2,22.3,10.9,42.6,13.3,65.5
				c1.2,11-2.7,19.6-10.1,27.7c-18.4,20.1-45.1,30-63.8,50.6C36.1,663.5,4,733.5,0.3,800"/>
			<path class="st1" d="M0.3,0c0.4,40.6,4.6,82.6,17,121.5c13.8,43.4,58,65.7,86.7,98.5c15.1,17.2,22.5,31.2,18.4,53.6
				c-2.9,15.8,1.5,26.6,11.5,39.3c20.5,26.2,62.8,51.2,65.6,87.6c2.7,35.3-38.2,46.6-55.9,70.3c-16.8,22.5,11.2,42.2,14.6,65.3
				c1.6,11.1-1.9,19.7-9.4,27.9c-18.5,20.3-46.2,29.7-65.5,50.2c-45.9,48.6-79,119-83,186"/>
			<path class="st1" d="M0.3,0c0.5,40.6,4.9,82.4,17.6,121.2c14.4,44,59.4,66.4,88.9,99.5c15.2,17.1,22.8,30.8,18.6,53.2
				c-3,15.9,2.1,26.6,12.5,39.1c21.1,25.3,66.6,50.8,68.8,87.4c2.1,35.8-42.3,47.4-61,70.6c-18.4,22.7,11.6,41.9,16,65
				c2.1,11.1-1.1,19.7-8.6,28.1c-18.6,20.5-47.4,29.5-67.2,49.7C38.8,661.7,4.5,732.6,0.3,800"/>
			<path class="st1" d="M0.3,0c0.5,40.6,5.3,82.2,18.3,120.9c15,44.6,60.7,67,91,100.4c15.4,16.9,23.2,30.4,18.9,52.8
				c-3.1,16,2.7,26.7,13.4,38.8c21.6,24.5,70.3,50.5,71.8,87.3c1.5,36.2-46.5,48.2-66.1,70.8c-19.9,23,12,41.7,17.4,64.8
				c2.6,11.1-0.2,19.8-7.8,28.3c-18.7,20.7-48.4,29.3-68.8,49.3C40.2,660.9,4.8,732.2,0.3,800"/>
			<path class="st1" d="M0.3,0c0.6,40.6,5.7,82.1,19,120.6C35,165.8,81.4,188.3,112.5,222c15.5,16.8,23.5,30.1,19.1,52.4
				c-3.2,16.2,3.2,26.7,14.3,38.6c22,23.6,73.9,50.2,74.7,87.1c0.8,36.6-50.6,48.9-71.2,71.1c-21.5,23.2,12.4,41.5,18.9,64.6
				c3.1,11.1,0.7,19.8-6.9,28.4c-18.7,21-49.5,29.1-70.3,48.9C41.7,660.1,5.1,731.7,0.3,800"/>
			<path class="st1" d="M0.3,0C1,40.8,6.7,81.6,20,120.3c15.7,45.7,63.5,68.5,95.2,102.3c8.1,8.6,17.6,18.5,21.1,30.1
				c2.6,8.8-0.8,13.6-1.7,21.9c-1.7,16.8,2.8,25.9,15.1,38.4c22.3,22.9,77.2,50,77.5,87c0.2,37-54.6,49.6-76.1,71.3
				c-23.1,23.4,13,41.4,20.5,64.4c3.6,11.1,1.7,19.8-6,28.6c-18.7,21.3-50.5,29-71.7,48.5C43.3,659.2,5.5,731.3,0.3,800"/>
			<path class="st1" d="M0.3,0C1,40.8,7.2,81.5,20.7,120c16.3,46.3,64.8,69.2,97.2,103.1c8.2,8.6,17.9,18.4,21.4,30
				c2.7,8.8-0.9,13.4-1.7,21.6c-1.7,17,3.2,25.9,15.8,38.3c22.5,22.1,80.4,49.8,80,86.9c-0.4,37.4-58.6,50.3-80.9,71.6
				c-24.6,23.6,13.6,41.4,22.1,64.1c4.1,11,2.8,19.8-5,28.8c-5.7,6.6-14.7,11.3-22.2,15.4c-18.5,10.1-35,18.5-50.9,32.6
				C44.9,658.4,6,730.8,0.3,800"/>
			<path class="st1" d="M0.3,0c0.8,40.8,7.3,81.3,21.2,119.7c16.9,46.8,66.1,69.8,99.2,103.9c8,8.3,18.6,18.4,21.7,29.9
				c2.4,8.9-0.9,13.1-1.8,21.3c-1.8,17.1,3.6,25.9,16.5,38.1c22.7,21.5,83.5,49.6,82.4,86.9c-1.1,37.8-62.5,50.9-85.5,71.8
				c-26,23.6,14.1,41.5,23.8,63.9c4.7,10.9,3.9,19.8-3.9,29c-5.6,6.7-14.8,11.4-22.3,15.4c-18.8,10.1-35.8,18.2-52.1,32.2
				c-52.9,45.3-93,118-99.2,187.7"/>
			<path class="st1" d="M0.3,0C1.2,40.8,8,81.1,22.2,119.4c17.5,47.3,67.3,70.3,101.2,104.7c8.1,8.2,18.8,18.3,22,29.8
				c2.5,8.9-1,12.9-1.9,21.1c-1.9,17.2,3.8,25.9,17,38c22.9,20.9,86.3,49.4,84.7,86.9c-1.7,38.2-66.3,51.4-90,72
				c-27.5,23.8,14.9,41.5,25.6,63.7c5.2,10.7,5,19.8-2.8,29.2c-5.5,6.7-14.8,11.5-22.3,15.4c-19.1,10.1-36.6,18-53.3,31.8
				C48.3,656.9,7,729.8,0.3,800"/>
			<path class="st1" d="M0.3,0c1,40.8,8.2,80.9,22.6,119.2C41,167,91.5,190.1,126,224.6c8.1,8.1,19.1,18.2,22.3,29.6
				c2.5,8.9-1,12.6-2,20.8c-2,17.4,4,25.9,17.5,37.9c23,20.3,89,49.3,86.7,86.9c-2.3,38.6-69.9,51.9-94.4,72.2
				c-28.9,23.9,15.8,41.7,27.5,63.5c5.6,10.6,6.2,19.7-1.6,29.4c-5.4,6.7-14.9,11.5-22.3,15.4c-19.4,10.1-37.3,17.7-54.5,31.5
				C50.1,656.2,7.7,729.3,0.3,800"/>
		</g>
	</g>
</g>
<g id="Layer_2">
</g>
</svg>
