<?xml version="1.0" encoding="utf-8"?>
<!-- Generator: Adobe Illustrator 19.2.0, SVG Export Plug-In . SVG Version: 6.00 Build 0)  -->
<svg version="1.1" xmlns="http://www.w3.org/2000/svg" xmlns:xlink="http://www.w3.org/1999/xlink" x="0px" y="0px"
	 viewBox="0 0 260 800" style="enable-background:new 0 0 260 800;" xml:space="preserve">
<style type="text/css">
	.st1{fill:none;stroke:#000000;stroke-width:0.5;stroke-miterlimit:10;}
</style>

			<path class="st1" d="M259.8,0C259.8,0,259.8,0,259.8,0c0,266.7,0.2,533.3,0,800c0.1,0,0,0,0,0c-8-71.2-51.7-144.5-108-188.3
				c-17.6-13.7-36-21-55.6-31.1c-7.4-3.8-17-8.6-22.3-15.4c-7.8-10-6.5-19.2-0.4-29.6c12.6-21.5,59.7-39.3,29.4-63.3
				c-25.2-20-95.6-33.4-98.6-72.4c-2.8-37.8,65.4-67.1,88.6-87c13.8-11.8,20.1-20.3,18-37.8c-1-8.1-4.5-11.7-2-20.5
				c3.2-11.4,14.5-21.5,22.6-29.5c35.3-34.8,86.4-57.9,105-106.2C251.1,80.8,258.7,40.8,259.8,0z"/>
			<path class="st1" d="M259.8,0c0.4,133-0.7,266.3-4.9,399.3c-4.3,133.6,7.2,266.9,5,400.7"/>
			<path class="st1" d="M259.8,0c0.4,69.6-1,138.2-4.9,207.5c-3.5,63.7-1.3,127.5-5,191.2c-2.7,45.6-5.3,92.1,0.4,137.5
				c10.8,87.4,11.8,175.6,9.5,263.7"/>
			<path class="st1" d="M259.8,0c0.3,40.8-0.3,81.6-0.2,122.4c0.1,28.4-5.2,56.4-7.7,84.7c-5.6,63.4-1.8,127.6-7,191.3
				c-3.8,45.6-7,92.7,0.4,138.1c14.2,87.2,17.2,175.2,14.5,263.6"/>
			<path class="st1" d="M259.8,0c0.4,40.9-0.3,81.9-0.3,122.8c0,28.3-7.4,55.8-10.9,83.8c-8,63.1-2.3,127.7-8.8,191.3
				c-4.7,45.5-8.2,93.3,0.5,138.5c16.7,87.1,22.4,174.6,19.6,263.6"/>
			<path class="st1" d="M259.8,0c0.5,41.1-0.4,82.2-0.5,123.3c-0.1,28.2-9.7,55.3-14.3,83.1c-5.7,34-2.9,67.7-3.8,102
				c-0.7,29.9-3.2,59.7-6.7,89.3c-5.5,45.4-9,93.8,0.6,138.9c5.7,26.8,13.1,52.4,16.3,79.8c7.1,60.7,10.3,122.6,8.5,183.8"/>
			<path class="st1" d="M259.8,0c0.5,41.2-0.4,82.4-0.8,123.7c-0.2,28.3-12.2,54.8-17.9,82.4c-7.1,34.1-3.9,67.4-4.7,101.9
				c-0.7,29.9-3.3,59.8-7.4,89.4c-6.2,45.3-9.5,94.2,0.7,139.2c6.1,26.9,14.6,52.6,18.6,80.1C257.2,677,261.2,739,259.8,800"/>
			<path class="st1" d="M259.8,0c0.5,41.4-0.3,82.7-1.1,124.1c-0.6,28.4-14.7,54.4-21.6,81.7c-8.6,34.2-4.9,67.2-5.6,101.9
				c-0.6,30-3.4,59.9-8,89.5c-6.9,45.1-9.8,94.6,0.9,139.4c6.4,27.1,15.9,52.9,20.7,80.5c10.5,60,15.7,122,14.6,182.9"/>
			<path class="st1" d="M259.8,0c0.5,41.5-0.3,83-1.5,124.5c-0.8,28.5-17.2,54.1-25.3,81.2c-10.2,34.3-6,66.9-6.6,101.9
				c-0.5,30-3.5,60-8.5,89.6c-7.5,45-9.8,94.9,1.1,139.5c6.7,27.3,17.1,53.2,22.7,80.8c12.2,59.6,18.4,121.7,17.9,182.5"/>
			<path class="st1" d="M259.8,0c0.5,41.6-0.4,83.3-1.9,124.9c-1.1,28.8-19.7,53.8-28.9,80.7c-11.8,34.4-7.1,66.5-7.5,101.9
				c-0.4,30.1-3.7,60-9,89.6c-8,44.7-9.7,95.1,1.4,139.6c6.9,27.5,18.2,53.5,24.7,81.2c13.8,59.3,21.2,121.3,21.2,182.1"/>
			<path class="st1" d="M259.8,0c0.4,41.7-0.5,83.6-2.5,125.2c-1.4,29.1-22.2,53.6-32.6,80.3c-13.4,34.6-8.1,66.2-8.5,102
				c-0.3,30.2-3.8,60.1-9.5,89.7c-8.5,44.5-9.5,95.4,1.9,139.6c7.1,27.7,19.4,53.8,26.6,81.5c15.3,58.9,24,120.9,24.5,181.7"/>
			<path class="st1" d="M259.8,0c0.3,41.8-0.6,83.9-3.1,125.6c-1.8,29.4-24.6,53.4-36.1,79.9c-15,34.6-9.2,65.9-9.5,102.1
				c-0.2,30.2-4,60.2-10.1,89.8c-9,44.2-9.2,95.6,2.4,139.5c7.4,27.9,20.6,54,28.5,81.8c16.8,58.5,26.7,120.5,27.8,181.4"/>
			<path class="st1" d="M259.8,0c0.2,41.9-0.8,84.1-3.8,125.9c-2.1,29.8-27,53.3-39.5,79.6c-16.5,34.7-10.2,65.7-10.4,102.3
				c-0.2,30.3-4.3,60.3-10.8,89.8c-9.5,43.8-8.8,95.8,3,139.3c7.7,28.1,21.8,54.3,30.5,82.1c18.1,58.1,29.3,120.1,30.9,181"/>
			<path class="st1" d="M259.8,0c0.1,41.9-1,84.4-4.5,126.2c-2.5,30.2-29.2,53.2-42.8,79.4c-18,34.7-11.1,65.5-11.4,102.4
				c-0.2,30.4-4.7,60.3-11.5,89.9c-10,43.4-8.4,96,3.8,139c8,28.3,23.1,54.5,32.5,82.4c19.4,57.7,31.8,119.7,33.9,180.6"/>
			<path class="st1" d="M259.8,0c-0.1,42-1.4,84.6-5.4,126.5c-2.9,30.7-31.3,53.2-45.9,79.3c-19.4,34.7-11.9,65.4-12.3,102.7
				c-0.3,30.5-5.2,60.4-12.5,90c-10.5,43-8,96.2,4.7,138.7c8.5,28.5,24.6,54.7,34.6,82.7c20.5,57.4,34.1,119.3,36.6,180.2"/>
			<path class="st1" d="M259.8,0c-0.3,42.1-1.8,84.9-6.3,126.7c-3.4,31.2-33.2,53.1-48.7,79.2c-20.6,34.6-12.7,65.3-13.2,102.9
				c-0.5,30.7-5.9,60.4-13.5,90c-6.1,23.4-7.6,43.4-4.6,67.3c2.9,23.4,3.2,48.4,10.4,71c9.1,28.7,26.2,54.8,36.9,82.9
				c21.6,57,36.4,118.9,39.2,179.9"/>
			<path class="st1" d="M259.8,0c-0.5,42.2-2.2,85.1-7.3,127c-3.8,31.8-35,53.2-51.4,79.2c-21.8,34.6-13.3,65.3-14.1,103.2
				c-0.7,30.8-6.7,60.5-14.8,90.1c-6.4,23.4-7.7,43.1-4.4,66.9c3.3,23.4,3.7,48.4,11.3,70.9c9.9,28.9,28,54.8,39.2,83.2
				c22.4,56.8,38.4,118.4,41.4,179.5"/>
			<path class="st1" d="M259.8,0c-0.6,42.1-2.4,85.1-8,126.8c-4.4,32.5-36.4,53.6-53.6,80c-22.6,34.6-12.9,65-14.4,103
				c-1.2,30.7-8.1,60.8-16.4,90.2c-6.6,23.7-7.4,42.7-4.1,66.8c3.2,23.3,2.4,48,10.1,70.5c10,29.2,30.3,54.6,42.3,83
				c23.9,56.4,41,118.3,44.1,179.6"/>
			<path class="st1" d="M259.8,0c-0.5,41.9-2.3,84.9-8.5,126.4c-5,33.3-37.8,54.4-55.7,81.3c-23.1,34.8-11.8,64.3-14.5,102.3
				c-2.2,30.5-10.4,61-18.6,90.3c-6.7,24.3-6.2,42.3-3.1,66.9c3,23.3,0.1,47.3,7.4,70c9.5,29.7,32.8,54.4,45.7,82.6
				c25.7,56,44,118.4,47.2,180.1"/>
			<path class="st1" d="M259.8,0c-0.5,41.8-2.2,84.7-9.1,126c-5.7,34.1-39.2,55.2-57.8,82.6c-12.5,18.4-18.8,36.6-16.3,58.8
				c1.7,14.6,3.1,28.1,1.5,42.9c-3.2,30.4-13.1,60.9-21.1,90.3c-6.8,25-4.6,42.1-1.3,67.1c3.1,23.2-1.9,46.7,4.9,69.5
				c9,30.2,35.1,54.2,49,82.2C237.1,675,256.4,738,259.7,800"/>
			<path class="st1" d="M259.8,0c-0.4,41.6-2.2,84.6-9.6,125.6c-6.3,34.9-40.6,56-59.9,84c-12.6,18.2-19.1,36.2-16.3,58.3
				c1.9,14.7,3.1,27.8,0.9,42.6c-4.4,30.5-16.1,60.5-23.9,90.3c-6.8,25.7-2.6,41.9,1.1,67.3c3.4,23-3.6,46.1,2.7,69.1
				c8.4,30.8,37.3,54.1,52,81.8c29.2,55,49.6,118.6,52.9,181"/>
			<path class="st1" d="M259.8,0c-0.4,41.5-2.3,84.4-10.1,125.2c-6.9,35.6-42,56.9-62.1,85.3c-12.8,18.1-19.3,35.7-16.3,57.9
				c2,14.8,3,27.5,0.2,42.4c-5.8,30.6-19.3,59.9-27,90.2c-6.8,26.6-0.2,41.8,4.2,67.5c3.9,22.8-4.9,45.6,0.7,68.7
				c7.7,31.3,39.4,54.1,54.9,81.4c30.8,54.5,52.3,118.8,55.6,181.5"/>
			<path class="st1" d="M259.8,0c-0.3,41.3-2.3,84.2-10.7,124.8c-7.5,36.4-43.5,57.7-64.3,86.6c-13,18-19.6,35.3-16.4,57.4
				c2.2,14.9,2.8,27.3-0.7,42.1c-7.2,30.8-22.8,59.1-30.3,90c-6.7,27.5,2.4,41.7,7.6,67.7c4.6,22.5-6.1,45.2-1.1,68.3
				c6.9,31.9,41.4,54.1,57.6,81c32.4,54,54.9,118.9,58.2,181.9"/>
			<path class="st1" d="M259.8,0c-0.3,41.2-2.4,84.1-11.3,124.5c-8.2,37.2-44.9,58.5-66.6,87.9c-13.2,17.9-19.8,34.9-16.5,57
				c2.3,15,2.5,27-1.6,41.9c-8.7,31-26.4,58.1-33.7,89.8c-6.6,28.5,5.2,41.7,11.5,67.9c5.4,22.3-7,44.9-2.7,67.9
				c6.1,32.5,43.2,54.2,60,80.7c33.9,53.5,57.4,119,60.8,182.4"/>
			<path class="st1" d="M259.8,0c-0.3,41.1-2.5,83.9-11.9,124.1c-8.8,37.9-46.4,59.4-68.8,89.2c-13.4,17.9-20.1,34.4-16.6,56.6
				c2.4,15,2.3,26.9-2.6,41.6c-10.5,31.1-30.2,57.1-37.3,89.6c-6.4,29.5,8.3,41.8,15.8,68.2c6.3,22-7.7,44.7-4.2,67.6
				c1.6,10.1,6.4,18.5,12.9,26.3c15.9,19.1,35.4,33,49.5,54.1c35.4,53,60,119,63.2,182.8"/>
			<path class="st1" d="M259.8,0c-0.3,41-2.7,83.8-12.5,123.8c-9.5,38.7-47.9,60.2-71.1,90.5c-13.6,17.8-20.4,34-16.8,56.2
				c2.5,15.1,2,26.7-3.7,41.3c-12.1,31-34.2,56-40.9,89.3c-6.1,30.3,11.4,42.1,20.3,68.4c7.4,21.8-8.4,44.5-5.6,67.2
				c1.3,10.3,6.1,18.7,12.7,26.5c16.4,19.2,37,32.4,51.8,53.6c36.8,52.4,62.4,119.1,65.7,183.3"/>
			<path class="st1" d="M259.8,0c-0.3,40.9-2.8,83.6-13.1,123.4c-10.1,39.4-49.3,61-73.4,91.7c-13.9,17.7-20.7,33.6-17,55.8
				c2.5,15.2,1.5,26.6-4.8,41c-13.7,30.8-38.2,55-44.5,89.1c-5.8,31.2,14.8,42.5,25.1,68.7c8.5,21.6-8.9,44.2-6.9,66.9
				c0.9,10.4,5.7,18.8,12.5,26.7c16.8,19.3,38.5,31.9,54,53c38.2,51.9,64.9,119.2,68.1,183.7"/>
			<path class="st1" d="M259.8,0c-0.3,40.8-3,83.5-13.7,123.1c-10.8,40.1-50.8,61.8-75.6,92.9c-14.1,17.6-20.9,33.2-17.2,55.4
				c2.6,15.2,1.2,26.7-6,40.7c-15.4,30.2-42.4,54.2-48.2,88.8c-5.4,32.1,18.4,43,30,69c9.7,21.6-9.4,44-8.2,66.6
				c0.5,10.6,5.2,19,12.1,26.9c17.2,19.4,39.9,31.5,56.2,52.5c39.6,51.3,67.3,119.2,70.6,184.1"/>
			<path class="st1" d="M259.8,0c-0.3,40.7-3.3,83.3-14.3,122.7c-11.4,40.8-52.3,62.6-77.9,94.1c-14.3,17.6-21.2,32.8-17.4,55.1
				c2.6,15.3,0.7,26.6-7.1,40.4c-16.8,29.6-46.5,53.4-51.8,88.5c-5,32.8,22.1,43.6,35.1,69.2c10.9,21.7-9.8,43.6-9.5,66.3
				c0.1,10.7,4.7,19.2,11.7,27.1c17.5,19.6,41.3,31,58.2,52c40.9,50.8,69.6,119.2,73,184.5"/>
			<path class="st1" d="M259.8,0c-0.3,40.7-3.5,83.2-15,122.4c-12.1,41.5-53.7,63.4-80.1,95.2c-14.5,17.5-21.5,32.4-17.6,54.7
				c2.7,15.4,0.2,26.6-8.2,40.1c-17.9,28.9-50.7,52.7-55.4,88.3c-4.5,33.5,26,44.3,40.2,69.5c12.3,21.8-10.2,43.3-10.8,66
				c-0.3,10.8,4.1,19.4,11.3,27.3c17.9,19.7,42.6,30.6,60.2,51.6c42.2,50.2,72,119.2,75.5,184.9"/>
			<path class="st1" d="M259.8,0c-0.3,40.6-3.8,83-15.6,122.1c-12.7,42.1-55.1,64.1-82.4,96.3c-14.7,17.4-21.8,32-17.9,54.3
				c2.8,15.5-0.4,26.6-9.4,39.8c-18.9,28-54.8,52.1-58.9,88c-3.9,34.2,30,45.1,45.4,69.8c13.7,22-10.6,42.9-12,65.8
				c-0.7,10.9,3.4,19.5,10.7,27.5c18.2,19.9,43.9,30.3,62,51.1c43.4,49.7,74.4,119.2,77.9,185.3"/>
			<path class="st1" d="M259.8,0c-0.4,40.7-4.3,82.7-16.3,121.8c-13.2,42.8-56.6,64.9-84.6,97.4c-14.9,17.3-22.1,31.6-18.1,53.9
				c2.8,15.7-1,26.6-10.4,39.6c-19.8,27.2-58.8,51.6-62.3,87.8c-3.3,34.8,34.1,45.8,50.7,70.1c15.2,22.3-10.9,42.6-13.3,65.5
				c-1.2,11,2.7,19.6,10.1,27.7c18.4,20.1,45.1,30,63.8,50.6C224,663.5,256,733.5,259.8,800"/>
			<path class="st1" d="M259.8,0c-0.4,40.6-4.6,82.6-17,121.5c-13.8,43.4-58,65.7-86.7,98.5c-15.1,17.2-22.5,31.2-18.4,53.6
				c2.9,15.8-1.5,26.6-11.5,39.3c-20.5,26.2-62.8,51.2-65.6,87.6c-2.7,35.3,38.2,46.6,55.9,70.3c16.8,22.5-11.2,42.2-14.6,65.3
				c-1.6,11.1,1.9,19.7,9.4,27.9c18.5,20.3,46.2,29.7,65.5,50.2c45.9,48.6,79,119,83,186"/>
			<path class="st1" d="M259.8,0c-0.5,40.6-4.9,82.4-17.6,121.2c-14.4,44-59.4,66.4-88.9,99.5c-15.2,17.1-22.8,30.8-18.6,53.2
				c3,15.9-2.1,26.6-12.5,39.1c-21.1,25.3-66.6,50.8-68.8,87.4c-2.1,35.8,42.3,47.4,61,70.6c18.4,22.7-11.6,41.9-16,65
				c-2.1,11.1,1.1,19.7,8.6,28.1c18.6,20.5,47.4,29.5,67.2,49.7c47.1,48,81.4,118.9,85.5,186.3"/>
			<path class="st1" d="M259.8,0c-0.5,40.6-5.3,82.2-18.3,120.9c-15,44.6-60.7,67-91,100.4c-15.4,16.9-23.2,30.4-18.9,52.8
				c3.1,16-2.7,26.7-13.4,38.8c-21.6,24.5-70.3,50.5-71.8,87.3c-1.5,36.2,46.5,48.2,66.1,70.8c19.9,23-12,41.7-17.4,64.8
				c-2.6,11.1,0.2,19.8,7.8,28.3c18.7,20.7,48.4,29.3,68.8,49.3c48.3,47.5,83.7,118.8,88.2,186.6"/>
			<path class="st1" d="M259.8,0c-0.6,40.6-5.7,82.1-19,120.6c-15.6,45.2-62.1,67.7-93.1,101.4c-15.5,16.8-23.5,30.1-19.1,52.4
				c3.2,16.2-3.2,26.7-14.3,38.6c-22,23.6-73.9,50.2-74.7,87.1c-0.8,36.6,50.6,48.9,71.2,71.1c21.5,23.2-12.4,41.5-18.9,64.6
				c-3.1,11.1-0.7,19.8,6.9,28.4c18.7,21,49.5,29.1,70.3,48.9c49.5,46.9,86,118.6,90.8,186.9"/>
			<path class="st1" d="M259.8,0c-0.7,40.8-6.4,81.6-19.7,120.3c-15.7,45.7-63.5,68.5-95.2,102.3c-8.1,8.6-17.6,18.5-21.1,30.1
				c-2.6,8.8,0.8,13.6,1.7,21.9c1.7,16.8-2.8,25.9-15.1,38.4c-22.3,22.9-77.2,50-77.5,87c-0.2,37,54.6,49.6,76.1,71.3
				c23.1,23.4-13,41.4-20.5,64.4c-3.6,11.1-1.7,19.8,6,28.6c18.7,21.3,50.5,29,71.7,48.5c50.6,46.4,88.3,118.4,93.6,187.2"/>
			<path class="st1" d="M259.8,0c-0.7,40.8-6.9,81.5-20.4,120c-16.3,46.3-64.8,69.2-97.2,103.1c-8.2,8.6-17.9,18.4-21.4,30
				c-2.7,8.8,0.9,13.4,1.7,21.6c1.7,17-3.2,25.9-15.8,38.3c-22.5,22.1-80.4,49.8-80,86.9c0.4,37.4,58.6,50.3,80.9,71.6
				c24.6,23.6-13.6,41.4-22.1,64.1c-4.1,11-2.8,19.8,5,28.8c5.7,6.6,14.7,11.3,22.2,15.4c18.5,10.1,35,18.5,50.9,32.6
				c51.8,45.9,90.7,118.2,96.3,187.4"/>
			<path class="st1" d="M259.8,0c-0.8,40.8-7.3,81.3-21.2,119.7c-16.9,46.8-66.1,69.8-99.2,103.9c-8,8.3-18.6,18.4-21.7,29.9
				c-2.4,8.9,0.9,13.1,1.8,21.3c1.8,17.1-3.6,25.9-16.5,38.1c-22.7,21.5-83.5,49.6-82.4,86.9c1.1,37.8,62.5,50.9,85.5,71.8
				c26,23.6-14.1,41.5-23.8,63.9c-4.7,10.9-3.9,19.8,3.9,29c5.6,6.7,14.8,11.4,22.3,15.4c18.8,10.1,35.8,18.2,52.1,32.2
				c52.9,45.3,93,118,99.2,187.7"/>
			<path class="st1" d="M259.8,0c-0.9,40.8-7.7,81.1-21.9,119.4c-17.5,47.3-67.3,70.3-101.2,104.7c-8.1,8.2-18.8,18.3-22,29.8
				c-2.5,8.9,1,12.9,1.9,21.1c1.9,17.2-3.8,25.9-17,38c-22.9,20.9-86.3,49.4-84.7,86.9c1.7,38.2,66.3,51.4,90,72
				c27.5,23.8-14.9,41.5-25.6,63.7c-5.2,10.7-5,19.8,2.8,29.2c5.5,6.7,14.8,11.5,22.3,15.4c19.1,10.1,36.6,18,53.3,31.8
				c54,44.8,95.3,117.7,102.1,187.9"/>
			<path class="st1" d="M259.8,0c-1,40.8-8.2,80.9-22.6,119.2c-18,47.8-68.5,70.9-103.1,105.5c-8.1,8.1-19.1,18.2-22.3,29.6
				c-2.5,8.9,1,12.6,2,20.8c2,17.4-4,25.9-17.5,37.9c-23,20.3-89,49.3-86.7,86.9c2.3,38.6,69.9,51.9,94.4,72.2
				c28.9,23.9-15.8,41.7-27.5,63.5c-5.6,10.6-6.2,19.7,1.6,29.4c5.4,6.7,14.9,11.5,22.3,15.4c19.4,10.1,37.3,17.7,54.5,31.5
				c55.2,44.3,97.7,117.5,105,188.1"/>

<g id="Layer_2">
</g>
</svg>
