<?xml version="1.0" encoding="utf-8"?>
<svg version="1.1" xmlns="http://www.w3.org/2000/svg" xmlns:xlink="http://www.w3.org/1999/xlink" x="0px" y="0px"
	 viewBox="0 0 600 800" style="enable-background:new 0 0 600 800;" xml:space="preserve">
<style type="text/css">
	.st2{fill:none;stroke:#242424;stroke-width:0.5;stroke-miterlimit:10;}
</style>
			<path class="st2" d="M716.2,840.1c-20.3-20.3-33.4-42.6-40.1-70.7c-5.4-22.9-2.5-45.9-6.9-68.6c-6.8-35.6-28.6-68.3-44.2-100.6
				c-13.9-28.8-27.2-61.9-28.6-94.3c-1.8-43.6,18.4-85.2,18.8-128.7c0.3-34.4-13.4-66.3-20.5-99.5c-7.7-35.8-4.1-72,7.2-106.7
				c11.3-34.9,37.6-62.9,55.8-94.3c21.7-37.4,37.4-78.2,54.3-117.9"/>
			<path class="st2" d="M704.4,840c-21-19.8-34.9-41.8-42.2-70c-5.9-22.7-3.3-45.6-7.7-68.3c-7.1-36.8-31.2-70.7-48.3-103.5
				c-13.8-26.4-27-57.1-29.2-87.2c-3.5-45.6,19.4-89.1,19.9-134.5c0.3-33.9-14.1-65.6-21.7-98.1c-8.3-35.3-4.8-71.3,6.6-105.6
				c12.2-36.5,40.7-64.3,60.9-96.3c23-36.4,39.6-76.8,57.4-115.9"/>
			<path class="st2" d="M692.9,840c-21.7-19.4-36.4-41.1-44.3-69.3c-6.4-22.6-4.1-45.2-8.5-67.9c-7.4-38.1-34.1-72.9-52.7-106.4
				c-14.4-25.8-27.7-55.7-29.8-85.6c-3.3-45.7,20.6-89.2,20.9-134.6c0.2-33.8-14.7-64.6-22.7-96.8c-9.1-36.5-5.1-73.9,7.7-109.1
				c13.1-35.9,43.1-62.5,64.4-93.5c24.3-35.4,41.8-75.4,60.4-113.9"/>
			<path class="st2" d="M681.7,840c-22.4-19-37.7-40.3-46.4-68.6c-6.9-22.7-5-44.8-9.4-67.6c-7.4-38.1-35.1-72.5-54.7-105.2
				c-15.7-26.2-30.9-56.6-32.9-87.6c-3-45.9,22-89.5,22.3-135.3c0.3-34.9-16.8-66.9-25-100.1c-8.8-35.6-3.9-74.2,10.1-107.9
				c14-33.8,43.2-58.5,65-87.1c26.9-35.3,45.9-76.3,66-115.7"/>
			<path class="st2" d="M670.6,840c-23.2-18.8-39.4-40.1-48.6-68.8c-7.3-22.7-5.5-45-10.2-67.8c-8-38.2-36.9-72.4-57.5-104.7
				c-16.3-25.5-33-55.7-34.7-86.6c-2.6-46.6,23.2-90.5,23.5-136.9c0.3-35-17.7-66.8-26.4-99.9c-9.2-35.5-3.8-74.4,10.7-107.9
				c14.8-33.9,45.3-57.9,68.4-85.9C624.3,47.1,644.4,6,665.4-33.1"/>
			<path class="st2" d="M659.8,840c-25.7-19.8-43.5-43.3-52.8-74.8c-5.9-20.2-4.6-40.5-8.7-60.7c-7.9-38.1-37.8-72.1-59.3-103.7
				c-16.8-24.7-34.2-53.1-37.5-83.5c-5.2-48.2,24-94.4,24.2-142.3c0.1-34.7-17.9-66.1-27.1-98.7c-10-35.5-4.1-73,10-106.7
				c15-35.7,48.4-59.5,73.4-87.9c29.5-33.5,50.5-74.2,72.3-112.8"/>
			<path class="st2" d="M649.1,839.9c-26.1-19.3-44.9-42.8-54.7-74.1c-6.8-21.7-5.2-44.2-10.9-65.8c-9.8-37.2-39.8-70.2-62-100.8
				c-18.1-25-37.5-55.5-38.2-87.4c-1-47,25.5-90.7,25.7-137.4c0.2-34.3-18.7-65.3-28.3-97.3c-10.5-35-4.9-72.3,9.2-105.6
				c15.3-36.1,48.9-58.9,75.4-86.4c32.1-33.2,54.7-74.9,78-114.4"/>
			<path class="st2" d="M638.6,839.9c-26.6-18.8-46.1-42.1-56.6-73.4c-7.2-21.6-5.9-44-11.5-65.5c-10-38.5-42.6-72.4-66.3-103.4
				c-17.6-23.1-36.1-50.9-38.3-80.7c-3.6-48.8,26.4-94.4,26.5-142.8c0.1-34.1-18.7-64.6-28.9-96.2c-11.7-36.1-5.2-74.9,10.3-109
				c16.1-35.4,51.3-57.4,78.4-83.8c33.1-32.2,56.5-73.6,80.5-112.6"/>
			<path class="st2" d="M628.3,839.9c-27.1-18.5-47.3-41.4-58.4-72.7c-7.6-21.5-6.6-43.7-12.2-65.2c-9.9-38.6-43.4-72.2-67.9-102.5
				c-19.1-23.7-39.3-51.4-41.1-82.9c-2.8-49,27.5-94.4,27.6-143c0.1-33.7-19.6-63.9-29.9-94.9c-12.3-36.9-6-77.8,11.5-112.2
				c17.7-34.8,53.4-55.6,81.3-81.3c33.9-31.2,58.2-72.4,82.9-110.9"/>
			<path class="st2" d="M618.1,839.9c-27.8-18.2-48.3-40.5-60.1-71.9c-8.6-23-7-47.2-14.2-70.2c-11.4-36.3-43.9-67.9-67.9-96.5
				c-20.2-24-43-51.9-44.3-84.8c-1.9-49.1,28.6-94.4,28.6-143.1c0-35.1-21.4-65.8-32-98.2c-11.6-35.3-3.9-73.9,12.1-106.7
				c18-36.7,56.3-57.2,86.2-83.2C561.4,55,586.4,14,611.7-24"/>
			<path class="st2" d="M608,839.9c-28.2-17.9-49.4-39.8-61.7-71.2c-9-22.8-7.7-46.9-14.7-69.9c-11.5-37.3-46.5-70.3-72-98.9
				c-19.8-22.1-40.9-47.8-44.2-78.5c-5.5-50.6,29.6-98.4,29.6-148.6c0-34.4-21.8-65.4-32.9-96.8c-12.3-34.7-4.9-73.2,11.1-105.7
				c18.9-38.5,59.3-58.6,91.1-84.8c35.5-29.3,61.3-70.2,87.1-107.7"/>
			<path class="st2" d="M598.1,839.8c-28.7-17.5-50.2-39-63.2-70.5c-9.3-22.7-8.2-46.7-15.3-69.6c-12-38.9-49.1-72.2-76.2-101.3
				c-20-21.5-41.7-46.8-44.1-77.5c-4-50.9,30.3-97.9,30.2-148.3c-0.1-34.5-22-64.5-33.4-95.8c-13-35.9-5.2-75.6,12.2-108.9
				c19.9-37.9,61.6-56.7,93.8-82.4c36.1-28.7,62.7-69,89.1-106.3"/>
			<path class="st2" d="M588.3,839.8c-29.3-17.4-51.5-38.8-65-70.7c-9.6-22.7-8.6-46.8-15.9-69.7c-12.5-39-50.6-72.2-78.5-100.9
				c-20.6-21.1-42.9-45.8-45.4-76.7c-4.1-51.4,31.2-98.8,31.1-149.6c-0.1-34.6-22.7-64.4-34.4-95.7c-13.4-35.9-5.3-75.8,12.6-108.9
				c20.6-38.1,63.4-56.3,96.6-81.3c37.2-28,64.6-68.4,91.8-105.5"/>
			<path class="st2" d="M578.5,839.8c-29.6-17.1-52.4-38.1-66.4-70c-10.1-22.9-9.2-46.2-16.4-69.5c-12.1-39-51.3-72.4-79.5-100.2
				c-21.7-21.4-46.3-46.2-48.4-78.6c-3.4-51.5,32.5-98.9,32.4-150c0-35.7-25.4-66.2-36.8-98.6c-12.5-35.2-3.3-76.1,15.4-107.7
				c21.1-35.7,62.2-53.7,95.3-76.3c39.7-27.2,68.7-68.8,97.2-106.8"/>
			<path class="st2" d="M568.9,839.8c-30-16.7-53.2-37.5-67.7-69.3c-10.5-22.9-9.8-45.8-16.9-69.2c-11.9-39.1-51.8-72.1-80.4-99.6
				c-21.9-20.9-46.8-43.6-51-75.5c-7.1-52.6,33-102.7,32.8-154.8c-0.1-35.4-24.7-65.9-37.1-97.6c-13.6-34.9-3.8-75,14.2-106.7
				c21.5-37.7,65.1-55.3,99.8-78.2c40.2-26.5,69.8-67.8,98.8-105.4"/>
			<path class="st2" d="M559.4,839.8c-30.2-16.4-53.9-36.9-68.9-68.6c-11.4-24.2-10.3-49.5-19.3-73.8c-14.1-38-53-70.2-82.4-96.9
				c-23.2-21.1-50.4-45.9-51-79.8C337,469.1,373,422.1,372,371c-0.7-35.1-25.4-64.9-37.9-96.3c-13.8-34.6-4.9-74.1,13-105.8
				c21.6-38.1,64.9-55.4,100.5-77.4c42.5-26.2,73.7-68,104.1-106.6"/>
			<path class="st2" d="M550,839.8c-32.9-17.4-57.6-39.5-72.8-74.2c-9.6-22.1-9-45.2-16.9-67.2c-14.1-39.3-55.7-72.3-86.3-99.2
				c-22.4-19.7-47.4-42.1-50.4-73.8c-5.1-52.9,34.8-102.1,34.5-154.5c-0.2-36.7-27.5-66.5-39.7-99.5c-12.8-34.5-2.6-74.1,15.8-104.7
				c22.5-37.4,66.8-53.8,102.7-75.1c42.9-25.5,74.6-67,105.4-105.3"/>
			<path class="st2" d="M540.6,839.8c-33.4-17.2-58.7-39.3-74.3-74.3c-9.8-22.1-9.2-45.3-17.3-67.3c-14.5-39.3-57-72.3-88.2-98.8
				c-22.8-19.4-48.3-41.2-51.5-73.2c-5.3-53.3,35.5-102.8,35.2-155.5c-0.2-36.8-28.1-66.5-40.6-99.4c-13-34.5-2.6-74.2,16.2-104.7
				C343.3,129,388.4,113,425,92.2c43.7-24.9,76.2-66.4,107.6-104.7"/>
			<path class="st2" d="M531.3,839.7c-33.6-16.9-59.4-38.7-75.4-73.6c-10.7-23.4-9.6-48.8-19.4-71.9c-15.7-37.3-56.4-68.3-86.9-93.5
				c-23.9-19.7-52-41.6-54-75.3c-3.2-53.7,37.3-102.3,36.1-155.3c-0.8-34.6-26.1-63.6-39.5-94c-16.1-36.5-6-79.2,15.5-111.7
				c24.3-36.7,69.7-52,106.7-72.3c44-24.1,77-65.7,108.7-103.5"/>
			<path class="st2" d="M522.1,839.7c-33.9-16.7-60-38.3-76.4-72.8c-11-23.3-10.1-48.5-19.6-71.6C411,658,369.4,627,338.8,602.2
				c-25-20.2-55.1-41.8-56.8-77.2c-2.7-53.5,37-102,36.6-154.9c-0.2-36-27.9-65.4-41.3-97.1c-14.7-35.1-3.9-75.7,16-106.7
				c24.8-38.7,72.3-53.4,111-74.1c44.1-23.5,77.7-65,109.6-102.4"/>
			<path class="st2" d="M513,839.7c-36.1-17.4-64.2-40.9-80.3-78.4c-9.1-21-8.2-44.3-16.7-65c-15.7-38.5-59-70.4-91.1-95.2
				c-24.2-18.7-51.9-38.7-56.1-71.6c-7-54.8,38.7-105.7,37.5-159.8c-0.8-35.2-27.9-65.2-41.8-95.9c-15.5-34.4-5-75.1,14.5-105.9
				c25.7-40.6,74.9-54.6,115.2-75.7C438.5,68.9,472.4,28,504.6-9.2"/>
			<path class="st2" d="M503.9,839.7c-36.6-17.2-65.1-40.7-81.6-78.5c-9.2-21.1-8.3-44.4-16.9-65.1c-16-38.6-60-70.5-92.5-95
				c-24.5-18.4-52.7-37.9-56.9-71.1c-7.1-55.1,39.3-106.3,38-160.7c-0.8-35.3-28.3-65.1-42.4-95.8c-15.8-34.4-5.1-75.2,14.7-105.9
				c26.3-40.7,76.1-54.3,117-75.1C428.2,69.9,462.7,29,495.4-8.2"/>
			<path class="st2" d="M495,839.7c-36.7-16.9-65.6-40.1-82.4-77.7c-9.4-21-8.9-43.9-17-64.9c-15.3-39.7-62.8-72.9-96.1-97.2
				c-26.2-19.1-55.2-39.8-56.1-75.6c-1.5-53.6,38.8-101.8,38.4-154.9c-0.2-35.3-28.1-64.5-42.3-95c-16.6-35.4-5.6-77.6,15.8-108.8
				c27.4-39.9,77.5-52.6,118.5-73c45-22.4,79.8-63,112.7-99.9"/>
			<path class="st2" d="M486,839.7c-36.8-16.6-66-39.5-83.2-76.9c-9.6-21-9.3-43.6-17.1-64.7c-14.7-39.9-63-72.9-96.2-96.9
				c-25.7-18.5-55.4-37.6-58.6-72.5c-5-55.1,40.6-105.3,39.3-159.8c-0.9-36.6-30.6-65.7-44.6-97.6c-15.4-35.2-3.1-77.6,18.7-107.7
				c28.3-39.2,78.8-50.9,119.9-71.1c45-22.1,80.1-62.4,113.1-99"/>
			<path class="st2" d="M477.2,839.7c-37.2-16.5-66.9-39.3-84.3-77c-9.7-21-9.3-43.7-17.2-64.8c-14.9-40-63.8-72.9-97.5-96.6
				c-26-18.3-56.1-37-59.3-72.1c-5.2-55.4,41.1-105.8,39.8-160.5c-0.9-36.7-31-65.6-45.2-97.5c-15.6-35.3-3.1-77.7,18.9-107.7
				c28.8-39.3,79.8-50.7,121.4-70.5c45.5-21.7,81.1-62,114.5-98.6"/>
			<path class="st2" d="M468.4,839.7c-37.3-16.2-67.2-38.7-85-76.2c-9.9-20.9-9.6-43.3-17.2-64.5c-14.4-40-63.8-72.9-97.3-96.3
				c-25.6-17.9-56.3-35-61.6-69.2c-8.7-56,40.1-109.2,39.7-164.6c-0.2-36-30.2-65.9-44.9-96.7c-16.6-34.8-4.1-76.8,17.3-106.8
				c28.1-39.3,78.8-52.2,120.8-70.5C388,74,424.8,32.6,459.4-4.8"/>
			<path class="st2" d="M459.7,839.7c-37.6-16.1-68-38.5-85.9-76.3c-10-21-9.6-43.4-17.3-64.6c-14.5-40.1-64.5-73-98.4-96.1
				c-25.8-17.7-56.8-34.4-62.2-68.8c-4.4-27.8,11.1-62.5,19.7-88.3c8-24.2,20.7-51.1,20.5-76.8c-0.2-36.1-30.5-65.9-45.4-96.7
				c-16.8-34.8-4.2-76.9,17.5-106.8c28.5-39.4,79.6-52,122.1-70c48.1-20.4,85.4-61.8,120.3-99.2"/>
			<path class="st2" d="M451,839.7c-37.5-15.7-68.4-38.3-86.5-75.5c-10.8-22.2-9.8-47-19.4-68.9c-17.7-40.3-67.1-72.6-102.9-95.9
				c-26.5-17.2-56-35.9-57.8-71.2c-3-55.4,42.4-105.1,41.1-159.8c-0.8-35.9-30.7-64.8-45.7-95.4c-16.9-34.7-5.5-75.7,15.9-106.1
				c28-39.7,78.8-52.7,121.5-70c50-20.2,88.4-61.7,124.6-100.2"/>
			<path class="st2" d="M442.4,839.7c-37.5-15.5-68.6-37.7-86.9-74.7c-11.7-23.6-10-50.2-21.2-73.2c-18.6-38-65.9-69-100.7-91.3
				c-26-16.7-56.1-34-60-68.2c-6.4-56.4,41.5-108.2,41.1-163.9c-0.2-37.4-32.7-66.2-47.2-98.4c-15.6-34.5-3.2-75.9,18.7-105.1
				c29-38.8,79.6-51.3,122.4-68.2C358.4,76.9,397,35.2,433.1-2.9"/>
			<path class="st2" d="M433.8,839.7c-37.8-15.4-69.2-37.5-87.7-74.7c-11.7-23.6-9.9-50.3-21.2-73.3c-18.7-38.1-66.5-69-101.6-91.1
				c-26.2-16.5-56.5-33.5-60.5-67.9c-6.5-56.6,41.8-108.5,41.5-164.4c-0.2-37.5-32.9-66.2-47.6-98.4c-15.7-34.6-3.3-76,18.8-105.1
				c29.4-38.9,80.3-51.1,123.4-67.9c50.2-19.4,89.2-61,125.5-99.2"/>
			<path class="st2" d="M425.3,839.7c-37.8-15.1-69.4-37-88.1-74c-11.9-23.6-10.1-49.9-21-73c-17.9-38-66.6-69.1-101.2-91
				c-26.9-17-60-33.9-62.5-70.1c-4-57,42.9-107.5,42-163.7c-0.6-35.3-30.5-63.9-45.8-93.5c-18.9-36.6-6.9-80.4,17.9-111.5
				c30.3-38.1,81-49.6,124.2-66.2c50-19.2,89-60.7,125.2-98.5"/>
			<path class="st2" d="M416.9,839.6c-38-15-70-36.8-88.8-74c-12-23.6-10-49.9-20.9-73.1c-18-38.1-67.1-69.1-101.9-90.9
				c-27.1-16.9-60.3-33.4-62.9-69.8c-4.2-57.1,43.2-107.8,42.3-164.1c-0.6-35.4-30.7-63.9-46.1-93.4c-19-36.6-7.1-80.5,18-111.6
				c30.7-38.1,81.5-49.5,125.1-65.9c50.3-19,89.5-60.4,126-98.3"/>
			<path class="st2" d="M408.5,839.6c-38.3-14.9-70.5-36.7-89.5-74c-12-23.7-9.9-50-20.8-73.2c-18-38.2-67.6-69.2-102.6-90.7
				c-27.3-16.8-60.6-33-63.3-69.6c-4.3-57.3,43.4-108.1,42.5-164.4c-0.5-35.4-30.9-63.8-46.4-93.4c-19.2-36.6-7.2-80.6,18-111.6
				c31.1-38.2,82-49.4,125.8-65.7C322.9,78.3,362.4,36.9,399-1"/>
			<path class="st2" d="M400.2,839.6c-38.2-14.7-70.6-36.1-89.7-73.2c-12.2-23.7-9.9-49.8-20.6-72.9c-17.8-38.6-66.8-69-102-90.7
				c-28.5-17.6-62.4-33.3-65.7-71.5c-4.8-56.6,43-107.7,42.8-163.6c-0.1-36.9-32.5-65.2-47.9-96.3c-17.5-35.3-5.2-77.3,18.3-107.1
				c31.5-40,83.9-50.7,129-67.6C314.8,78,354.1,37.1,390.7-0.6"/>
			<path class="st2" d="M392,839.6c-38.4-14.6-71-36-90.3-73.2c-12.2-23.7-9.7-49.8-20.4-73c-17.8-38.7-67.3-69-102.5-90.6
				c-28.6-17.5-62.6-33-66-71.3c-5-56.7,43.2-107.9,43-163.9c-0.1-36.9-32.6-65.2-48.1-96.3c-17.6-35.4-5.4-77.3,18.3-107.1
				c31.8-40.1,84.2-50.6,129.6-67.4c50.5-18.7,90-59.5,126.7-97.3"/>
			<path class="st2" d="M383.8,839.6c-38.2-14.3-71.1-35.6-90.4-72.5c-12.4-23.7-10.2-49.2-20.1-72.7c-17.2-40.8-72-73.4-108.9-94.7
				c-26.5-15.3-55.6-30.5-60.7-64.4c-4.1-27.4,11.4-61.3,20.1-86.6c8.5-24.5,23.5-54.6,23.1-81.2c-0.5-36.2-32.2-65-48-95.2
				c-18.2-34.9-6.7-76.3,16.4-106.4c32-41.7,86.3-52,132.7-69.2C298.2,78.1,337.6,37.4,374.2,0"/>
			<path class="st2" d="M375.7,839.6c-38.4-14.2-71.5-35.4-90.9-72.5c-12.4-23.7-10-49.2-19.9-72.7c-17.1-40.9-72.3-73.4-109.3-94.6
				c-26.6-15.2-55.7-30.2-60.9-64.3c-4.2-27.4,11.4-61.4,20.2-86.8c8.5-24.5,23.5-54.6,23.2-81.3c-0.4-36.3-32.3-65-48.1-95.2
				c-18.3-35-6.9-76.4,16.4-106.4c32.3-41.7,86.6-51.9,133.2-69C289.9,78.3,329.4,37.7,366,0.2"/>
			<path class="st2" d="M367.6,839.6c-38.5-14.1-71.9-35.2-91.3-72.4c-12.4-23.8-9.9-49.2-19.7-72.8
				c-17.1-40.9-72.7-73.5-109.7-94.6c-26.7-15.2-55.8-30-61.1-64.2c-4.2-27.4,11.4-61.6,20.3-86.9c8.6-24.6,23.6-54.7,23.3-81.4
				c-0.4-36.3-32.4-64.9-48.3-95.2c-18.4-35-7.1-76.4,16.4-106.5c32.6-41.7,86.8-51.8,133.6-68.9c50.5-18.3,90-59,126.8-96.5"/>
			<path class="st2" d="M359.7,839.6c-38.4-13.9-71.8-34.7-91.3-71.7c-12.6-23.8-10-48.7-19.4-72.5c-16.1-41.1-72.1-73.6-108.8-94.6
				c-29-16.6-61.3-32.6-63.2-71c-2.9-56.5,43.7-106.5,43.8-162.4c0.1-36.2-31.8-64.5-47.7-94.4c-19.2-35.9-7.7-78.8,17.3-109.1
				c33.7-40.8,86.9-50.2,133.8-67.4c50.1-18.4,89.4-58.8,125.9-96"/>
			<path class="st2" d="M351.7,839.6c-38.5-13.8-72.2-34.6-91.7-71.6c-12.6-23.9-9.8-48.8-19.1-72.6c-16-41.2-72.4-73.7-109.1-94.6
				c-29.1-16.5-61.3-32.4-63.4-70.9c-3-56.6,43.8-106.6,43.9-162.6c0.1-36.2-31.8-64.4-47.8-94.4c-19.2-35.9-8-78.8,17.3-109.2
				c33.9-40.7,87-50.2,134.1-67.3C266.1,78.3,305.5,38,342,0.7"/>
			<path class="st2" d="M343.9,839.6c-38.7-13.7-72.5-34.4-92-71.6c-12.6-23.9-9.6-48.8-18.8-72.6c-15.9-41.3-72.6-73.7-109.4-94.5
				c-29.1-16.5-61.3-32.2-63.5-70.8c-3.2-56.6,43.9-106.7,44.1-162.7c0.1-36.3-31.8-64.4-47.9-94.4c-19.3-36-8.2-78.9,17.3-109.2
				c34.2-40.7,87.1-50.1,134.3-67.2c50.2-18.2,89.6-58.6,126.2-95.9"/>
			<path class="st2" d="M336.1,839.6c-38.6-13.5-72.2-33.7-91.9-70.8c-12.7-23.8-9.9-48.3-18.5-72.3c-14.7-41.2-72.1-74-108.2-94.6
				c-28.5-16.3-60.7-31-65.2-68.1c-7-57.5,44.5-109.7,44.2-166.5c-0.2-37.5-33.8-65.4-49.6-96.9c-17.9-35.8-5.7-79.1,20-108.2
				c35.3-39.9,86.9-48.6,134.2-65.9C250.9,78,290,37.9,326.3,0.8"/>
			<path class="st2" d="M328.3,839.6c-38.7-13.4-72.5-33.5-92.2-70.8c-12.7-23.9-9.7-48.3-18.1-72.4c-14.5-41.2-72.3-74-108.4-94.6
				c-28.6-16.3-60.6-30.8-65.2-68C37.2,476.3,88.9,424,88.7,367.3c-0.2-37.6-33.7-65.4-49.6-96.9c-18-35.8-5.9-79.1,20-108.2
				c35.5-39.9,86.9-48.5,134.3-65.9C243.2,78,282.3,37.9,318.6,0.8"/>
</svg>
