<?xml version="1.0" encoding="UTF-8"?>
<svg width="1440px" height="800px" viewBox="0 0 1440 800" version="1.1" xmlns="http://www.w3.org/2000/svg" xmlns:xlink="http://www.w3.org/1999/xlink">
    <!-- Generator: Sketch 47.1 (45422) - http://www.bohemiancoding.com/sketch -->
    <title>rorschach-3 copy</title>
    <desc>Created with Sketch.</desc>
    <defs></defs>
    <g id="Symbols" stroke="none" stroke-width="1" fill="none" fill-rule="evenodd" fill-opacity="0.66">
        <g id="rorschach-3-copy" fill="#060C19">
            <path d="M729,525 C641.445394,525 543.054311,432.281878 559,343 C574.227322,253.239988 632.640768,227.143946 713,204 C792.502363,180.784885 889.554319,263.112183 865,350 C840.796532,437.596273 817.140745,525 729,525 Z" id="Oval-3"></path>
            <path d="M783,617 C695.904077,617 598.143706,524.852451 614,436 C629.11689,346.912358 687.155891,320.976906 767,298 C845.992732,274.903132 942.42256,356.7238 918,443 C893.977324,530.134142 870.473176,617 783,617 Z" id="Oval-3-Copy"></path>
            <path d="M816,587 C718.377118,587 609.579286,484.582136 627,386 C644.049442,286.80971 708.641233,257.98362 797,232 C885.411267,206.774688 992.728333,297.714688 966,394 C938.813473,490.452498 912.655631,587 816,587 Z" id="Oval-3-Copy-2"></path>
        </g>
    </g>
</svg>